<svg xmlns="http://www.w3.org/2000/svg" viewBox="0 0 1448 1448"><g fill="none" stroke-width="2"><path stroke="#d6d6d6" stroke-opacity=".651" d="m1256.02 222.71.95 7.6" vector-effect="non-scaling-stroke"/><path stroke="#cfcfcf" stroke-opacity=".686" d="M1256.97 230.31c.02 1.82-1.26 2.78-1.26 4.69q.01 15.86.07 31.81a1.89 1.88-77.9 0 0 1.11 1.72c2.9 1.3.4 4.26.27 6.2q-.56 8.76-.33 18.42.03 1.59.59 3.53.42 1.42.41 2.89-.11 58.91-.14 120.1c0 1.95-.37 3.9-.2 5.84q.22 2.37.15 4.67-1.23 38.83.15 77.81.87 24.44-6.48 47.75-4.02 12.74-8 25.5-.88 2.84-1.9 5.78-3.12 9.02-6.28 18.36-9.67 28.59-18.32 55.42-11.92 36.94-21.08 63.28-9.57 27.55-13.89 41.83-1.13 3.77-2.45 7.14c-2.32 5.97-3.95 12.3-6.14 18.26q-3.23 8.77-5.96 17.99c-.41 1.41-.31 2.64-1.08 3.98q-.99 1.71-1.57 3.55-6.92 21.93-13.86 43.04-1.08 3.3-2.29 6.51-.53 1.41-.9 2.78-.37 1.42-.86 2.79-6.36 18-17.09 51.24c-8.51 26.38-18.42 54.46-24.18 72.33q-9.92 30.78-21.36 64.41-.24.7-.46 1.37-6.98 20.99-12.9 39.31-2.14 6.6-4.8 13.66-2.67 7.11-4.5 13.78c-1.53 5.58-3.34 10.95-4.94 16.69q-.64 2.32-3.8 8.49-.43.84-.35 2.56.02.51-.27.94-1.34 1.96-1.64 4.31-.07.54-.39.99c-2.08 2.89-1.23 5.47-2.3 8.55q-6.83 19.8-12.29 36.85-.75 2.33-2.62 4.19a2.13 1.99-15.4 0 0-.51.83q-1.11 3.36-2.59 6.53-.82 1.75.31 4.8" vector-effect="non-scaling-stroke"/><path stroke="#d6d6d6" stroke-opacity=".651" d="M1030.05 1223.78q-.05.31-.34.66M1027.79 1225.47q-14.94 8.56-31.07 14.12c-7.97 2.75-16.17 3.81-24.32 5.69-16.59 3.83-33.2 5.22-49.96 2.9q-8.93-1.24-17.73-2.29-4.86-.58-9.83-1.98c-8.41-2.39-16.87-4.31-24.82-7.53q-42.28-17.13-72.09-52.37a.97.97 0 0 1 .26-1.48c.88-.5 1.44-1.49 1.62-2.46q.42-2.25 1.56-3.8c1.21-1.64.53-3.62 1.88-5.47q2.87-3.93 3.11-9.04.03-.55.35-1.01 2.29-3.19 2.62-6.26.47-4.43 3.23-7.05a.95.94-39.4 0 0 .12-1.22q-1.23-1.79-.63-3.51 1.03-2.94 3.16-5.48.34-.41-.06-.76-1.6-1.41-.44-3.2 1.6-2.47 2.3-4.9 1.83-6.36 3.82-11.89 1.87-5.2 3.26-10.81 1.99-8.05 5.86-15.93a2.44 2.38-34.5 0 0 .25-1.26l-.1-1.36q-.04-.56.29-1 2.07-2.71 2.59-6.16.18-1.22.76-2.32c.99-1.91 1.07-3.92 2.02-5.84q1.01-2.04.97-4.24a1.56 1.56 0 0 1 .42-1.09q.83-.88.97-2.04.3-2.53 1.52-4.91.25-.47.27-1 .08-1.76.68-3.34 3.39-8.87 6.26-16.33 1.09-2.83 1.88-6.03c.88-3.58 3.07-6.85 4-10.59q4.18-16.79 11.02-34.19c1.2-3.05 2.15-6.29 2.97-9.46.67-2.58 2.31-4.5 2.91-7.11q1.13-4.94 2.49-9.99c1.21-4.53 3.27-8.85 4.97-13.21.95-2.44 1.19-5.09 2.38-7.41q1.34-2.61 1.89-5.29.78-3.84 2.09-7.29 1.16-3.03 1.81-5.7.71-2.9 1.75-5.67c2.99-7.95 4.95-16.32 8.02-24.08q4.02-10.18 7.19-21.92 1.52-5.61 3.92-11.55 2.44-6.03 4.24-13.22c.62-2.46 1.94-4.67 2.55-7.13q2.36-9.56 5.98-17.68c.86-1.94.79-4.03 1.84-5.76 1.19-1.97 1.02-4.04 2.16-6.08.98-1.77.52-3.78 1.45-5.68q1.68-3.42 2.92-7.31 5.77-18.16 11.95-36.2c.83-2.42 1.03-4.66 2.32-6.99q2.01-3.64 2.74-7.62.45-2.51 1.3-4.8 5.16-13.81 9.1-27.57c1.53-5.34 3.53-10.59 5.19-16.02q4.54-14.78 12.2-35.61 2.86-7.77 7.69-25.11c1.24-4.43 2.83-8.73 4.27-13.15.93-2.83.81-5.87 2.07-8.67q2.48-5.54 4.9-11.28c2.02-4.78 3-9.84 4.51-14.73q.93-3.01 2.53-6.35 1.67-3.49 2.32-6.65c.52-2.52 1.57-4.4 2.22-6.74q1.81-6.54 4.21-12.96.39-1.05.36-2.06a1.72 1.7 62.6 0 1 .32-1.03q1.53-2.12 2.06-4.4 1.57-6.76 3.49-11.73c2.88-7.48 4.53-14.92 7.59-22.42 1.04-2.55 1.53-5.12 2.35-7.75q.93-2.96 1.4-5.69c1.24-7.23 2.53-13.94 2.7-21.67q.52-22.9.56-45.8c.08-51.08.24-102.17.4-153.25q.01-3.09.53-8.37.21-2.19-.22-4.22-.45-2.1-.94-4.18M724.05 999.07q-28.79-93.13-58.75-185.81-3.06-9.45-6.09-19.06-42.44-134.59-84.24-265.45-.72-2.26-1.7-.1c-1.12 2.47-2.37 4.73-3.12 7.34q-1.12 3.89-1.94 7.6c-.96 4.29-3.08 7.97-4.48 12.04q-.21.6-.66 1.04-1.37 1.34.03 2.86.39.43.01.87-2.9 3.25-2.77 7.96.07 2.49-1.52 4.36-.38.45-.38 1.03 0 2.84-1.66 5.34-.3.45-.29.98.01 2.33-1.16 4.29a2.9 2.87 60.3 0 0-.41 1.52c.04 3.44-3.21 4.52-2.39 8.33.61 2.89-.79 6.3-1.92 8.91-.72 1.65-.49 3.48-1.01 5.22-1.36 4.57-3.3 9.05-4.06 13.65q-.64 3.86-2.25 7.09-1.43 2.87-2.06 5.87-2.05 9.78-5.72 20.65-.4 1.2-1.13 2.29c-.88 1.33-.67 2.88-1.46 4.38-1.28 2.42-.81 5.6-1.86 8.25q-1.43 3.67-2.31 7.52c-.46 2.05-1.5 3.73-2.34 5.63-1.45 3.27-2.16 6.71-3.24 10.08q-.86 2.69-1.51 5.98-.96 4.85-2.44 9.11c-1.32 3.82-1.44 8.11-3.58 11.65q-1.1 1.82-1.49 4.11-.42 2.41-1.28 5.87-2.6 10.38-5.75 18.25-1.68 4.2-2.1 7.41-.53 4.15-1.82 7.47-.43 1.14-.77 2.23-3.58 11.83-6.91 23.95c-.61 2.22-1.77 4.13-2.18 6.39q-.46 2.54-1.26 4.91-7.3 21.75-12.1 39.84-.32 1.21-.51 2.52-.16 1.11-.5 2.1c-1.21 3.5-1.86 7.17-3.4 10.54q-3.41 7.44-4.7 13.65-2.05 9.8-4.85 18.19-6.17 18.49-11.82 40.55c-.58 2.28-1.7 4.33-2.2 6.53q-2.03 9.09-5.68 17.82c-1.87 4.48-1.51 9.42-4.2 13.54-.97 1.48-.7 3.02-1.21 4.59q-3.23 9.89-5.63 19.3c-.99 3.88-3.25 6.8-3.62 10.95-.26 2.85-1.8 4.92-2.36 7.65q-.89 4.35-2 8.89c-.81 3.36-2.42 6.21-3.03 9.57q-.66 3.59-2 7.25-3 8.15-5.54 17.91-.46 1.77-1.32 9.04-.57 4.83-2.49 9.59-1.46 3.65-2.21 7.29-.96 4.69-2.85 9.52-1.18 3.03-1.6 6.14-.63 4.74-2.75 9.3-.97 2.1-.55 4.28a2.26 2.2 53.7 0 1-.2 1.42c-1.75 3.45-2.12 7.03-3.52 10.58l-3.39 8.59q-.96 2.41-1.45 4.77-.53 2.52-1.22 5.04c-.46 1.73-1.6 2.94-1.33 4.85q.07.53-.17 1l-1.9 3.71q-.26.5.02.98l.67 1.16q.21.36.05.75l-3.12 7.76q-.2.49-.09 1.01l.43 2.18a1.23 1.22-33 0 1-.21.97c-2.27 3.16-3.79 6.38-4.36 10.4q-.3 2.17-1.09 4.79-1.72 5.72-3.88 11.77M720.13 1012.64l-6.82 23.08M711.45 1042.39l-1.25 4.1M709.88 1047.67l-1.37 4.87M707.97 1054.18l-1.76 5.9M703.7 1068.42l-1.5 5.08M693.19 1103.16q-.6 1.19-.73 2.48M692.32 1106.39q-.87 1.53-1.18 3.39M690.4 1113.07q-2.63 7.05-4.96 14.01-3.09 9.2-5.16 13.92-22.38 51.15-70.65 81.64c-23.92 15.1-52 24.12-80.44 26.57q-16.42 1.41-29.47-.11-5.55-.65-11.32-1.27-5.53-.6-11.01-2.01-10.14-2.61-19.99-5.14-7.78-1.99-16.66-5.94-26.85-11.94-48.71-31.58-4.31-3.87-11.27-11.02M941.13 479.19q.48 1.79.07 3.13" vector-effect="non-scaling-stroke"/><path stroke="#cfcfcf" stroke-opacity=".686" d="M941.2 482.32q-12.46 37.53-25.04 74.96-2.94 8.74-6.26 18.98-12.88 39.63-26.41 79.04c-2.2 6.42-4.16 13.38-6.35 19.93q-12.91 38.54-22.74 68.56-11.28 34.44-21.65 65-3.21 9.49-6.23 19-10.8 33.98-24.73 75.23-3.23 9.57-6.42 20.47-.31 1.09-.79.06c-.88-1.88-2.63-2.76-3.53-4.68q-3.03-6.41-6.41-12.6-.29-.54-.26-1.15.2-3.5-1.3-6.67c-.62-1.31-.21-2.34-.53-3.62q-1.84-7.35-5.93-16.54c-.52-1.16-.32-2.14-.71-3.23q-2.35-6.58-4.11-13.07-.83-3.04-2.28-5.5-1.43-2.43-2.08-5.4-.45-2.1-.96-4.22c-.55-2.3-1.49-4.26-1.97-6.59q-.52-2.45-1.52-4.95-2.35-5.87-3.61-12.07c-.5-2.49-2.04-4.12-2.21-6.78q-.19-2.92-2.18-5.08-.41-.45-.49-1.05-1.08-7.74-4.59-16.08-1.61-3.82-2.69-7.85-1.12-4.17-2.7-8.27-2.01-5.24-3.86-12.35-2.2-8.48-5.82-18.07-1.09-2.89-1.94-5.94-.84-3.01-2.03-6.08c-.75-1.93-.74-4.02-1.62-5.95q-.92-2.01-1.21-4.05-.52-3.68-.69-7.5-.02-.55-.36-.98-3.04-3.83-2.73-8.54.05-.7-.27-1.32-2.31-4.64-3.79-9.56c-.37-1.22-1.35-2.22-1.84-3.44q-5.02-12.65-8.44-25.53c-.38-1.45-1.23-2.61-1.54-4.07-.74-3.46-2.52-6.43-3.29-9.85q-1-4.4-2.78-8.49-1.02-2.32-1.36-5.02-.4-3.14-1.5-6.04c-.63-1.68-.22-3.87-1.61-5.08a2.15 2.12-78.3 0 1-.66-1.02q-.92-3.28-1.84-6.44c-1.22-4.17-3.22-7.8-4.13-12.06-.41-1.91-1.55-3.39-1.99-5.25q-.49-2.09-1.25-3.98-1.31-3.28-2.25-6.89-.89-3.42-2.02-6.95c-3.88-12.1-6.91-23.01-11.5-36.37-.57-1.68-.39-3.51-1.12-5.03q-2.51-5.25-3.17-10.54c-.35-2.76-2.32-5.22-3.02-8.06q-1.01-4.08-2.22-8.05c-.58-1.91-.52-3.91-.36-5.88q.05-.52-.37-.84-1.75-1.31-2.58-3.41c-1.15-2.91-2.91-6.29-3.26-9.4-.22-1.93-1.33-3.35-1.78-5.27q-.27-1.14-.59-2.19-2.12-7.05-4.46-14.66-1.22-3.97-2.77-7.14-1.08-2.21-1.3-4.47-.42-4.48-3.03-8.37c-.93-1.37-.86-2.97-.94-4.56-.12-2.55-1.64-4.42-2.08-6.87-.33-1.88-1.33-3.43-1.72-5.31q-.42-2-1.1-3.89-3.85-10.83-7.35-21.92c-.66-2.09-1.77-4-2.32-6.18q-2.73-10.8-5.66-18.58c-1.13-3.01-1.54-6.16-3.09-9.02-.87-1.61-.43-3.44-1.11-5.2q-1.57-4.02-2.55-7.77c-.56-2.15-2.05-3.75-2.06-6.07q0-.53-.27-.99c-1.49-2.56-1.59-5.23-2.69-7.93-1.32-3.2-.89-6.4-2.6-9.55q-1.16-2.13-1.59-4.36-1.12-5.72-3.56-10.81c-.89-1.86-.82-4.23-1.49-6.25q-3.39-10.27-6.82-20.59-1.35-4.09-2.42-7.95-.6-2.16-.75-4.4-.23-3.33-1.95-6.16a1.68 1.64-9.2 0 0-1.08-.76l-1.74-.35q-.6-.12-.75-.73-.08-.34.14-.61c.54-.62 1.58-.62 2.33-.77a.43.43 0 0 0 .23-.71l-2.83-3.06a3.5 3.46 20.6 0 1-.91-1.97l-.81-6.9q-.06-.52-.5-.8l-2.6-1.6" vector-effect="non-scaling-stroke"/><path stroke="#d6d6d6" stroke-opacity=".651" d="M579.53 265.4q-.22-.31-.05-1.24M377.69 225.99q1.51 8.35 4.95 16.17.98 2.23 1.13 3.99.17 1.86.18 3.74a2.08 2.06-63.1 0 0 .39 1.21q1.2 1.65.65 3.28-.25.73.33 1.24 2.53 2.24 2.43 5.38-.02.7.29 1.33 1.08 2.2 1.67 4.4 1.62 6.01 4.71 12.37c1.59 3.3 1.82 6.96 2.95 10.5q10.33 32.29 21.52 63.78c3.46 9.72 6.31 19.28 9.16 28.83 1.22 4.05 3.51 7.68 4.55 11.8q1.12 4.39 2.82 8.86c2.63 6.89 4.34 14.18 7.25 21.39 2.62 6.52 4.19 13.72 6.55 20.49q8.14 23.37 16.06 46.81c.81 2.4 1.87 4.74 2.88 7.08q1.1 2.53 1.64 5.3.73 3.67 2.84 7.02.34.53.32 1.16-.04 1.74.93 3.1.34.48.19 1.05l-.24.91q-.12.49.1.95 2.18 4.34 2.47 5.7c.93 4.24 2.91 9.39 2.03 13.77-.26 1.31.12 2.55 1.46 3.04a.52.52 0 0 0 .68-.35l.49-1.84q.23-.87.33.03.11 1.05-.27 2.02-1.11 2.73-1.64 5.2" vector-effect="non-scaling-stroke"/><path stroke="#cfcfcf" stroke-opacity=".686" d="m479.49 545.7-113.4 380.46a.37.37 0 0 1-.65.13c-2.14-2.61-3.61-5.84-4.25-9.22-.48-2.56-2.53-3.59-3.96-5.48q-1.84-2.45-2.12-6.16-.48-6.5-2.82-13.39c-.39-1.13-.1-2.13-.59-3.25q-1.6-3.62-3.2-7.03c-.55-1.16-.19-2.42-.7-3.67q-1.75-4.24-2.99-8.63-.48-1.7-2.12-3.07a1.81 1.75-80 0 1-.54-.8q-2.65-8.04-5.15-16.34c-.68-2.26-2.25-5.09-3.13-7.74-2.34-7.04-5.11-14.11-7.23-21.09q-5.93-19.65-12.16-37.86c-1.15-3.34-1.49-6.89-3.3-9.89-.74-1.22-.46-3.07-1.16-4.59q-2.81-6.18-4.3-13.52-.39-1.88-2.19-3.53-.48-.43-.43-1.08l.1-1.18q.04-.5-.13-.96c-1.58-4.12-2.42-7.51-4.1-11.69q-.86-2.15-1.51-4.46-1.75-6.22-5.88-17.09c-1.62-4.28-2.51-8.83-4.05-13.07q-8.91-24.57-17.01-51.12c-.96-3.14-2.63-5.49-3.4-8.85q-1.08-4.71-2.85-9.21c-.95-2.41-1.31-5.06-2.3-7.58-1.82-4.66-3.57-8.9-5.12-13.96q-1.95-6.38-4.65-12.49c-.73-1.66-.95-4.29-1.72-6.35q-3.07-8.21-6.26-16.78c-.8-2.15-1.06-4.35-2.06-6.42-1.55-3.21-1.96-6.76-3.11-10.13q-2.18-6.4-4.58-13.37-2.27-6.6-4.31-13.39-3.39-11.28-7.19-22.47c-.52-1.55-1.71-2.4-1.79-4.06q-.18-4.15-1.86-7.45-1.37-2.69-2.09-5.45c-.42-1.6-1.19-2.98-1.62-4.56q-.48-1.75-1.1-3.45-1.84-5.12-4-10.76c-1.39-3.65-4.16-6.65-5.17-10.15-1.13-3.88-3.04-7.28-4.32-11.12q-.14-.46-.05-.92l.14-.65q.1-.49-.11-.95-2.16-4.65-3.4-9.5-1.96-7.7-11.33-32.58-.89-2.37-1.21-4.43-.13-.86-.45-1.67-2.08-5.44-3.52-10.7c-.52-1.89-1.64-3.36-2.19-5.24q-2.51-8.66-5.2-18.27-1.41-5.02-3.32-9.59c-.88-2.12-.68-4.26-1.75-6.36-1.09-2.16-2.19-4.08-2.74-6.49q-.89-3.92-2.34-7.8-1.29-3.44-2.39-7.08-1.08-3.58-2.34-7.11c-.8-2.25-.53-4.5-2.73-6.03q-.5-.34-.31-.92l.98-3.03a1.55 1.54 25.2 0 0-.64-1.77q-2.09-1.34-1.9-3.67.06-.78-.45-1.38c-1.98-2.28-3.43-4.45-3.47-7.66a1.68 1.66-63.6 0 0-.31-.94q-3.38-4.59-4.83-9.97-.9-3.33-2.56-6.64c-1.01-2.02-.8-3.87-1.25-6" vector-effect="non-scaling-stroke"/><path stroke="#d6d6d6" stroke-opacity=".651" d="M141.35 275.03q-.13-2.98-3.47-4.61" vector-effect="non-scaling-stroke"/></g><path fill="#fff" d="m1256.02 222.71.95 7.6c.02 1.82-1.26 2.78-1.26 4.69q.01 15.86.07 31.81a1.89 1.88-77.9 0 0 1.11 1.72c2.9 1.3.4 4.26.27 6.2q-.56 8.76-.33 18.42.03 1.59.59 3.53.42 1.42.41 2.89-.11 58.91-.14 120.1c0 1.95-.37 3.9-.2 5.84q.22 2.37.15 4.67-1.23 38.83.15 77.81.87 24.44-6.48 47.75-4.02 12.74-8 25.5-.88 2.84-1.9 5.78-3.12 9.02-6.28 18.36-9.67 28.59-18.32 55.42-11.92 36.94-21.08 63.28-9.57 27.55-13.89 41.83-1.13 3.77-2.45 7.14c-2.32 5.97-3.95 12.3-6.14 18.26q-3.23 8.77-5.96 17.99c-.41 1.41-.31 2.64-1.08 3.98q-.99 1.71-1.57 3.55-6.92 21.93-13.86 43.04-1.08 3.3-2.29 6.51-.53 1.41-.9 2.78-.37 1.42-.86 2.79-6.36 18-17.09 51.24c-8.51 26.38-18.42 54.46-24.18 72.33q-9.92 30.78-21.36 64.41-.24.7-.46 1.37-6.98 20.99-12.9 39.31-2.14 6.6-4.8 13.66-2.67 7.11-4.5 13.78c-1.53 5.58-3.34 10.95-4.94 16.69q-.64 2.32-3.8 8.49-.43.84-.35 2.56.02.51-.27.94-1.34 1.96-1.64 4.31-.07.54-.39.99c-2.08 2.89-1.23 5.47-2.3 8.55q-6.83 19.8-12.29 36.85-.75 2.33-2.62 4.19a2.13 1.99-15.4 0 0-.51.83q-1.11 3.36-2.59 6.53-.82 1.75.31 4.8-.05.31-.34.66l-1.92 1.03q-14.94 8.56-31.07 14.12c-7.97 2.75-16.17 3.81-24.32 5.69-16.59 3.83-33.2 5.22-49.96 2.9q-8.93-1.24-17.73-2.29-4.86-.58-9.83-1.98c-8.41-2.39-16.87-4.31-24.82-7.53q-42.28-17.13-72.09-52.37a.97.97 0 0 1 .26-1.48c.88-.5 1.44-1.49 1.62-2.46q.42-2.25 1.56-3.8c1.21-1.64.53-3.62 1.88-5.47q2.87-3.93 3.11-9.04.03-.55.35-1.01 2.29-3.19 2.62-6.26.47-4.43 3.23-7.05a.95.94-39.4 0 0 .12-1.22q-1.23-1.79-.63-3.51 1.03-2.94 3.16-5.48.34-.41-.06-.76-1.6-1.41-.44-3.2 1.6-2.47 2.3-4.9 1.83-6.36 3.82-11.89 1.87-5.2 3.26-10.81 1.99-8.05 5.86-15.93a2.44 2.38-34.5 0 0 .25-1.26l-.1-1.36q-.04-.56.29-1 2.07-2.71 2.59-6.16.18-1.22.76-2.32c.99-1.91 1.07-3.92 2.02-5.84q1.01-2.04.97-4.24a1.56 1.56 0 0 1 .42-1.09q.83-.88.97-2.04.3-2.53 1.52-4.91.25-.47.27-1 .08-1.76.68-3.34 3.39-8.87 6.26-16.33 1.09-2.83 1.88-6.03c.88-3.58 3.07-6.85 4-10.59q4.18-16.79 11.02-34.19c1.2-3.05 2.15-6.29 2.97-9.46.67-2.58 2.31-4.5 2.91-7.11q1.13-4.94 2.49-9.99c1.21-4.53 3.27-8.85 4.97-13.21.95-2.44 1.19-5.09 2.38-7.41q1.34-2.61 1.89-5.29.78-3.84 2.09-7.29 1.16-3.03 1.81-5.7.71-2.9 1.75-5.67c2.99-7.95 4.95-16.32 8.02-24.08q4.02-10.18 7.19-21.92 1.52-5.61 3.92-11.55 2.44-6.03 4.24-13.22c.62-2.46 1.94-4.67 2.55-7.13q2.36-9.56 5.98-17.68c.86-1.94.79-4.03 1.84-5.76 1.19-1.97 1.02-4.04 2.16-6.08.98-1.77.52-3.78 1.45-5.68q1.68-3.42 2.92-7.31 5.77-18.16 11.95-36.2c.83-2.42 1.03-4.66 2.32-6.99q2.01-3.64 2.74-7.62.45-2.51 1.3-4.8 5.16-13.81 9.1-27.57c1.53-5.34 3.53-10.59 5.19-16.02q4.54-14.78 12.2-35.61 2.86-7.77 7.69-25.11c1.24-4.43 2.83-8.73 4.27-13.15.93-2.83.81-5.87 2.07-8.67q2.48-5.54 4.9-11.28c2.02-4.78 3-9.84 4.51-14.73q.93-3.01 2.53-6.35 1.67-3.49 2.32-6.65c.52-2.52 1.57-4.4 2.22-6.74q1.81-6.54 4.21-12.96.39-1.05.36-2.06a1.72 1.7 62.6 0 1 .32-1.03q1.53-2.12 2.06-4.4 1.57-6.76 3.49-11.73c2.88-7.48 4.53-14.92 7.59-22.42 1.04-2.55 1.53-5.12 2.35-7.75q.93-2.96 1.4-5.69c1.24-7.23 2.53-13.94 2.7-21.67q.52-22.9.56-45.8c.08-51.08.24-102.17.4-153.25q.01-3.09.53-8.37.21-2.19-.22-4.22-.45-2.1-.94-4.18c39.15-45.94 97.03-69.42 157.18-63.75q7.23.68 15.45 2.66c6.95 1.66 13.98 2.76 20.7 4.8q18.28 5.53 35 15.01.21.12.25.51ZM377.69 225.99q1.51 8.35 4.95 16.17.98 2.23 1.13 3.99.17 1.86.18 3.74a2.08 2.06-63.1 0 0 .39 1.21q1.2 1.65.65 3.28-.25.73.33 1.24 2.53 2.24 2.43 5.38-.02.7.29 1.33 1.08 2.2 1.67 4.4 1.62 6.01 4.71 12.37c1.59 3.3 1.82 6.96 2.95 10.5q10.33 32.29 21.52 63.78c3.46 9.72 6.31 19.28 9.16 28.83 1.22 4.05 3.51 7.68 4.55 11.8q1.12 4.39 2.82 8.86c2.63 6.89 4.34 14.18 7.25 21.39 2.62 6.52 4.19 13.72 6.55 20.49q8.14 23.37 16.06 46.81c.81 2.4 1.87 4.74 2.88 7.08q1.1 2.53 1.64 5.3.73 3.67 2.84 7.02.34.53.32 1.16-.04 1.74.93 3.1.34.48.19 1.05l-.24.91q-.12.49.1.95 2.18 4.34 2.47 5.7c.93 4.24 2.91 9.39 2.03 13.77-.26 1.31.12 2.55 1.46 3.04a.52.52 0 0 0 .68-.35l.49-1.84q.23-.87.33.03.11 1.05-.27 2.02-1.11 2.73-1.64 5.2l-113.4 380.46a.37.37 0 0 1-.65.13c-2.14-2.61-3.61-5.84-4.25-9.22-.48-2.56-2.53-3.59-3.96-5.48q-1.84-2.45-2.12-6.16-.48-6.5-2.82-13.39c-.39-1.13-.1-2.13-.59-3.25q-1.6-3.62-3.2-7.03c-.55-1.16-.19-2.42-.7-3.67q-1.75-4.24-2.99-8.63-.48-1.7-2.12-3.07a1.81 1.75-80 0 1-.54-.8q-2.65-8.04-5.15-16.34c-.68-2.26-2.25-5.09-3.13-7.74-2.34-7.04-5.11-14.11-7.23-21.09q-5.93-19.65-12.16-37.86c-1.15-3.34-1.49-6.89-3.3-9.89-.74-1.22-.46-3.07-1.16-4.59q-2.81-6.18-4.3-13.52-.39-1.88-2.19-3.53-.48-.43-.43-1.08l.1-1.18q.04-.5-.13-.96c-1.58-4.12-2.42-7.51-4.1-11.69q-.86-2.15-1.51-4.46-1.75-6.22-5.88-17.09c-1.62-4.28-2.51-8.83-4.05-13.07q-8.91-24.57-17.01-51.12c-.96-3.14-2.63-5.49-3.4-8.85q-1.08-4.71-2.85-9.21c-.95-2.41-1.31-5.06-2.3-7.58-1.82-4.66-3.57-8.9-5.12-13.96q-1.95-6.38-4.65-12.49c-.73-1.66-.95-4.29-1.72-6.35q-3.07-8.21-6.26-16.78c-.8-2.15-1.06-4.35-2.06-6.42-1.55-3.21-1.96-6.76-3.11-10.13q-2.18-6.4-4.58-13.37-2.27-6.6-4.31-13.39-3.39-11.28-7.19-22.47c-.52-1.55-1.71-2.4-1.79-4.06q-.18-4.15-1.86-7.45-1.37-2.69-2.09-5.45c-.42-1.6-1.19-2.98-1.62-4.56q-.48-1.75-1.1-3.45-1.84-5.12-4-10.76c-1.39-3.65-4.16-6.65-5.17-10.15-1.13-3.88-3.04-7.28-4.32-11.12q-.14-.46-.05-.92l.14-.65q.1-.49-.11-.95-2.16-4.65-3.4-9.5-1.96-7.7-11.33-32.58-.89-2.37-1.21-4.43-.13-.86-.45-1.67-2.08-5.44-3.52-10.7c-.52-1.89-1.64-3.36-2.19-5.24q-2.51-8.66-5.2-18.27-1.41-5.02-3.32-9.59c-.88-2.12-.68-4.26-1.75-6.36-1.09-2.16-2.19-4.08-2.74-6.49q-.89-3.92-2.34-7.8-1.29-3.44-2.39-7.08-1.08-3.58-2.34-7.11c-.8-2.25-.53-4.5-2.73-6.03q-.5-.34-.31-.92l.98-3.03a1.55 1.54 25.2 0 0-.64-1.77q-2.09-1.34-1.9-3.67.06-.78-.45-1.38c-1.98-2.28-3.43-4.45-3.47-7.66a1.68 1.66-63.6 0 0-.31-.94q-3.38-4.59-4.83-9.97-.9-3.33-2.56-6.64c-1.01-2.02-.8-3.87-1.25-6q-.13-2.98-3.47-4.61c26.69-34.78 65.03-58.86 107.95-67.69q7.5-1.55 15.16-2.14c6.73-.53 13.72-1.57 20.32-1.23 7.95.42 16.23.25 23.89 1.2q39.33 4.87 72.49 25.43ZM941.13 479.19q.48 1.79.07 3.13-12.46 37.53-25.04 74.96-2.94 8.74-6.26 18.98-12.88 39.63-26.41 79.04c-2.2 6.42-4.16 13.38-6.35 19.93q-12.91 38.54-22.74 68.56-11.28 34.44-21.65 65-3.21 9.49-6.23 19-10.8 33.98-24.73 75.23-3.23 9.57-6.42 20.47-.31 1.09-.79.06c-.88-1.88-2.63-2.76-3.53-4.68q-3.03-6.41-6.41-12.6-.29-.54-.26-1.15.2-3.5-1.3-6.67c-.62-1.31-.21-2.34-.53-3.62q-1.84-7.35-5.93-16.54c-.52-1.16-.32-2.14-.71-3.23q-2.35-6.58-4.11-13.07-.83-3.04-2.28-5.5-1.43-2.43-2.08-5.4-.45-2.1-.96-4.22c-.55-2.3-1.49-4.26-1.97-6.59q-.52-2.45-1.52-4.95-2.35-5.87-3.61-12.07c-.5-2.49-2.04-4.12-2.21-6.78q-.19-2.92-2.18-5.08-.41-.45-.49-1.05-1.08-7.74-4.59-16.08-1.61-3.82-2.69-7.85-1.12-4.17-2.7-8.27-2.01-5.24-3.86-12.35-2.2-8.48-5.82-18.07-1.09-2.89-1.94-5.94-.84-3.01-2.03-6.08c-.75-1.93-.74-4.02-1.62-5.95q-.92-2.01-1.21-4.05-.52-3.68-.69-7.5-.02-.55-.36-.98-3.04-3.83-2.73-8.54.05-.7-.27-1.32-2.31-4.64-3.79-9.56c-.37-1.22-1.35-2.22-1.84-3.44q-5.02-12.65-8.44-25.53c-.38-1.45-1.23-2.61-1.54-4.07-.74-3.46-2.52-6.43-3.29-9.85q-1-4.4-2.78-8.49-1.02-2.32-1.36-5.02-.4-3.14-1.5-6.04c-.63-1.68-.22-3.87-1.61-5.08a2.15 2.12-78.3 0 1-.66-1.02q-.92-3.28-1.84-6.44c-1.22-4.17-3.22-7.8-4.13-12.06-.41-1.91-1.55-3.39-1.99-5.25q-.49-2.09-1.25-3.98-1.31-3.28-2.25-6.89-.89-3.42-2.02-6.95c-3.88-12.1-6.91-23.01-11.5-36.37-.57-1.68-.39-3.51-1.12-5.03q-2.51-5.25-3.17-10.54c-.35-2.76-2.32-5.22-3.02-8.06q-1.01-4.08-2.22-8.05c-.58-1.91-.52-3.91-.36-5.88q.05-.52-.37-.84-1.75-1.31-2.58-3.41c-1.15-2.91-2.91-6.29-3.26-9.4-.22-1.93-1.33-3.35-1.78-5.27q-.27-1.14-.59-2.19-2.12-7.05-4.46-14.66-1.22-3.97-2.77-7.14-1.08-2.21-1.3-4.47-.42-4.48-3.03-8.37c-.93-1.37-.86-2.97-.94-4.56-.12-2.55-1.64-4.42-2.08-6.87-.33-1.88-1.33-3.43-1.72-5.31q-.42-2-1.1-3.89-3.85-10.83-7.35-21.92c-.66-2.09-1.77-4-2.32-6.18q-2.73-10.8-5.66-18.58c-1.13-3.01-1.54-6.16-3.09-9.02-.87-1.61-.43-3.44-1.11-5.2q-1.57-4.02-2.55-7.77c-.56-2.15-2.05-3.75-2.06-6.07q0-.53-.27-.99c-1.49-2.56-1.59-5.23-2.69-7.93-1.32-3.2-.89-6.4-2.6-9.55q-1.16-2.13-1.59-4.36-1.12-5.72-3.56-10.81c-.89-1.86-.82-4.23-1.49-6.25q-3.39-10.27-6.82-20.59-1.35-4.09-2.42-7.95-.6-2.16-.75-4.4-.23-3.33-1.95-6.16a1.68 1.64-9.2 0 0-1.08-.76l-1.74-.35q-.6-.12-.75-.73-.08-.34.14-.61c.54-.62 1.58-.62 2.33-.77a.43.43 0 0 0 .23-.71l-2.83-3.06a3.5 3.46 20.6 0 1-.91-1.97l-.81-6.9q-.06-.52-.5-.8l-2.6-1.6q-.22-.31-.05-1.24 30.83-36.12 75.06-52.76c7.63-2.88 15.81-4.45 23.8-6.62q7.54-2.06 14.43-2.83c7.81-.87 15.12-2 22.66-1.64 8.99.42 18.46.09 27.3 1.27q26.57 3.54 51.31 14.84 47.32 21.62 76.55 65.93 11.08 16.79 17.84 34.63 5.51 14.51 10.77 30.97 20.98 65.62 41.93 131.24Z"/><path fill="#4c4c4c" fill-opacity=".298" d="M1256.02 222.71q.45.43 1.25.53.42.06.78.28 31.95 19.28 53.15 47.27 40.26 53.13 37.14 120.28-.14 3.12-.52 6.35-.32 2.65-.78 6.32-1.14 9.14-3.7 19.62c-3.55 14.49-10.45 34.14-16 50.9q-99.13 299.02-197.31 594.87c-6.72 20.27-13.78 42.2-20.26 60.12q-8.71 24.06-24.47 45.27-21.11 28.41-51.46 47.22.05-1.56 2.62-2.41.47-.15.63-.62.49-1.48 1.51-2.25.38-.29.27-.75-.13-.55.18-1.02.3-.45.47-.96 1.69-4.95 3.09-9.92.23-.83.66-1.57.84-1.45.84-1.49a13.42 13.38 58.9 0 1 1.06-4.3q2.77-6.37 5.17-14.14.59-1.9 1.21-5.41.45-2.57 1.42-5.4 1.62-4.76 3.07-9.25.23-.73.71-1.38.47-.63.9-1.32.64-1.02.78-2.25.12-1.04.64-1.91.47-.79.77-1.69l1.15-3.55q.09-.27-.01-.54-.09-.27.18-.44.35-.22.48-.61.94-2.92 1.85-6.64.28-1.17.89-2.38.73-1.47.72-3.05 0-.53.3-.97.7-1.02.7-2.17.01-1.32.45-2.64 1.76-5.21 3.52-10.3.05-.16.15-.29.09-.13.24-.21.45-.25.61-.74 7.09-21.42 12.58-38.49.28-.89.42-1.71.08-.49.39-.89 1.13-1.48 1.13-3.23 0-.51.45-.76.48-.28.57-.83.58-3.61 2.8-7.16.26-.42.24-.91-.02-.47.16-.89 1.47-3.33 2.28-7.04.27-1.23.87-2.39.59-1.13.88-2.44.43-1.9 1.08-3.74 2.48-7.04 4.47-14.23c.34-1.23.97-2.13 1.24-3.32q.97-4.26 2.82-8.22.2-.42.2-.89-.01-.44.18-.85 1.45-3.26 2.55-7.32.29-1.08.75-2.11.45-1.03.72-2.11.61-2.49.87-3.19.99-2.72 1.91-5.47c.36-1.08.18-2.09.86-3.05q.65-.91.95-1.89.91-3.03 2.02-6.23c.3-.86.06-1.52.22-2.35q.09-.48.38-.86.58-.76.58-1.65a1.93 1.84-32.7 0 1 .21-.86q.92-1.74 1.51-4.01.49-1.94 1.18-3.58.74-1.75 1.21-3.68.46-1.88 1.1-3.56 1.31-3.47 2.33-6.91.46-1.57 1.22-3.26.68-1.51.77-3.2.04-.73.59-1.22 1.18-1.06 1.29-2.8.09-1.33.67-2.55.37-.77.6-1.61 1.03-3.7 2.38-7.41.21-.57.14-1.17-.08-.69.49-1.05.49-.31.61-.88.36-1.66.84-3.25.51-1.65 1.16-3.11 1.44-3.21 2.23-6.75.18-.82.66-1.53.28-.4.28-.89.02-1.47.97-2.79.32-.44.39-.98.29-2.07 1.13-4.04.88-2.07 1.44-4.1 2.32-8.45 5.9-17.6.48-1.23.61-2.46.05-.5.26-.95 1.82-3.79 2.77-7.35.83-3.11 1.79-6 1-3.03 1.89-5.93.15-.48.5-.85c.58-.6.34-1.71.63-2.57q2.31-6.78 4.57-13.5.42-1.23.92-2.36.53-1.19.82-2.39.43-1.8 1-3.55 2.03-6.18 4.23-12.69.2-.59.18-1.19c-.03-.83.71-1.59 1.01-2.41q.91-2.44 1.51-4.93.22-.9.68-1.7.63-1.08.46-2.21-.07-.44.12-.84.77-1.66 1.31-2.9.57-1.29.95-3.24.27-1.43.93-2.73.58-1.14.83-2.38.37-1.84 1.2-3.48.77-1.52 1.29-3.22 3.68-12 8.48-25.57a2.4 2.39-13.1 0 1 .57-.91q.88-.87.34-1.79-.21-.35 0-.69c.98-1.59.94-3.13 1.48-4.8q.96-2.99 1.96-5.96.05-.12.17-.14.15-.01.17.26a.02.01-39 0 0 .03 0q1.01-2.86 2.39-7.35c.56-1.85 1.67-3.29 1.96-5.18q.3-1.95 1.23-3.9.93-1.95 1.55-4.05.09-.31-.18-.12-.05.04-.07-.03-.05-.13 0-.26c.98-2.44 1.3-4.94 2.15-7.42q2.74-7.97 5.4-15.87.14-.42.27-.82 5.28-16.26 10.58-31.94c.32-.96.19-1.71.29-2.7q.05-.49.4-.84.45-.44.32-1.04a1.13 1.13 0 0 1 .18-.88q.83-1.2.92-2.56.03-.4.33-.67.83-.73.72-1.93-.06-.78.45-1.25.42-.37.53-.92l.59-3.01q.11-.57.49-1.01.54-.63.52-1.42-.01-.53.25-.99 1.4-2.43 2.02-5.32 1-4.61 2.52-9.06.02-.06 1.12-2.54.67-1.5.77-3.19a1.29 1.25 69.1 0 1 .34-.79q.81-.85 1.05-2.02.24-1.2.64-2.26 1.17-3.06 2.1-5.97 3.91-12.29 9.82-29.75.14-.42.1-.85-.05-.49.44-.67a.73.72-1 0 0 .43-.44q1.57-4.79 3.24-9.74c.24-.72.16-1.25.17-1.98q.01-.73.25-1.42 2.75-7.82 5.2-15.53.58-1.84.86-3.74.38-2.52 1.47-4.35 1.19-2.01 1.62-4.05.66-3.09 1.66-5.69.17-.42-.24-.23-.12.06-.23-.14-.1-.2.06-.36l.33-.34a1.46 1.45 73 0 0 .42-.8q1.12-5.79 2.26-11.65.33-1.69.4-3.42t.38-3.46q.46-2.52.51-5.16.19-10.07.25-20.14.01-1.53-.13-2.55-.24-1.64-.18-2.48c.24-3.77-.82-7.45-.15-11.51a1.79 1.75 34.9 0 0-.22-1.17q-.44-.73-.16-1.51.36-1 .32-2.26-.36-10.6-.13-19.15.24-8.85-.13-16.87a21.93 21.16-44 0 1 .12-3.34q.64-5.72.25-11.37c-.07-1.11.5-1.74-.05-2.91a1.06 1.02-57.8 0 1-.1-.49l.1-4.45q.01-.46.23-.87.62-1.09 0-2.33a1.73 1.69-55.3 0 1-.17-1q.45-3.52.26-7.03-.28-5.46-.23-7 .17-4.84.16-10.48c0-.84-.46-1.55-.22-2.4q.25-.88.22-1.71-.11-3.64-.04-7.24 0-.49.18-.99a1.25 1.21-48.5 0 0-.04-.93q-.34-.77.15-1.43.23-.3.21-.67-.08-2.36.04-4.8.04-.83-.4-1.53-.26-.4-.16-.88.34-1.65.12-3.19c-.23-1.72.43-3.1-.21-4.8a1.93 1.93 0 0 1 .24-1.77q.29-.42.07-.89-.67-1.46-.11-2.99.16-.42.04-.85-.62-2.31-.15-4.97.42-2.36.28-4.89-.54-10.23-.27-19.56.15-5.16.02-8.3-.05-.93.04-1.86.09-1.03.01-2.14-.35-4.38.36-8.99.16-1.01-.05-2.05-.27-1.32.04-2.56.1-.38.02-.76-.33-1.57-.13-3.27a.96.94-74.1 0 0-.53-.97q-1.07-.51-.65-1.7.07-.19-.12-.27-.04-.02-.09-.02-.16 0-.14.16.04.46.03.9a.47.47 0 0 1-.52.45q-.41-.03-.59-.4-.1-.22-.09-.45.1-1.55-.25-3.27-.08-.4.27-.61 1.77-1.01 1.37-3.39-.4-2.37-.03-4.46.32-1.83.43-3.71.19-3.35.79-6.7.08-.46-.09-.88-.49-1.22-.37-2.63.04-.49-.21-.91-.69-1.19-.82-2.49-.26-2.45-.81-4.89-.07-.29.03-.55.06-.15.21-.2.41-.15.41-.58.01-5.82.04-11.25 0-1.29-.34-2.59-.36-1.38.23-2.7.21-.47.08-.97-.49-1.78-.24-3.59.23-1.63.27-3.26.09-3.79.23-7.58c.04-1.03-.41-1.72-1.33-2.11q-.56-.24-.47-.84.04-.27-.23-.31-.47-.07-.47-.55v-1.5q0-.95-.51-.15-.2.31-.4.96l-.95-7.6ZM377.69 225.99q5.01 2.95 12.11 8.19 39.73 29.32 59.36 73.93 3.01 6.83 8.9 24.29 22.23 65.87 44.73 132.75.34 1.03.66-.01 18.28-61.52 36.8-123.44 5.07-16.96 5.81-19.14 10.9-32.2 33.42-58.4-.17.93.05 1.24-.33 2.77-1.17 5.31-.23.69-.14 1.35c.16 1.18.09 2.24.48 3.39q1.8 5.35 3.41 10.47 1.06 3.39 2.77 6.38 2.05 3.58 2.71 7.65.1.61-.13 1.19-.12.29.08.54.86 1.1.56 2.59-.1.51.23.89c1.29 1.48 1.34 3.57 1.98 5.41q2.56 7.44 5.21 14.85.84 2.35 1.38 4.7.52 2.19 1.62 4.71c.48 1.1.32 2.26.79 3.45q2.07 5.2 3.34 10.36.18.73.57 1.4.39.66.68 1.36.17.42.23 1.24.05.67.3 1.27.58 1.41.65 1.75c.67 3.12 1.3 6.67 2.55 9.67q.66 1.6.75 3.33.01.21.12.4.09.18.22.32.34.36.44.85.53 2.79 1.76 5.48.61 1.31.42 2.71-.08.56.25 1.01 1.37 1.94 1.91 4.58.46 2.24 1.12 4.24 1.58 4.82 3.51 9.86a2.56 1.21 80.6 0 1 .11.33q3.1 10.43 6.21 21.61a.68.65-85.3 0 0 .34.42q.55.26.31 1.03.91 3.39 2.23 6.18.35.72.41 1.61.06.92.53 1.69.7 1.12 1.36 2.33.24.44-.14.75-.28.23-.13.57.71 1.6 1.45 3.29.57 1.31.82 2.7.19 1.09.59 2.1 2.32 5.77 3.97 12.21.53 2.05 1.36 4.01.78 1.86 1.23 3.96.65 3.06 1.66 5.98 1.88 5.48 3.28 11.47.41 1.75 1.63 3.2a1.77 1.74 22.3 0 1 .39.91q.21 1.55.91 3.04.65 1.4 1.15 2.9 3.81 11.52 7.16 23.2.14.48.49.84l.32.31q.37.38.32.91-.06.7.45 1.19.39.38.54.9.57 2.09 1.59 4.05 1.05 2.01 1.45 4.13.45 2.33.86 4.59.41 2.27 1.11 4.43.91 2.81 1.71 5.78 2.18 8.12 4.63 14.89c.51 1.4.12 2.57.8 3.93q.21.41.04.83-.08.2-.14.39-.07.23.06.02.03-.04.09-.04.17.02.23.19 2.78 8.3 5.53 16.6.2.61.8 1.84.45.92.7 1.91.37 1.47.87 2.82.51 1.35.59 2.78.07 1.3.55 2.49.63 1.57 1.22 3.21c.48 1.33.29 2.57.98 3.87q.15.28-.04.54-.08.11-.1.25-.03.25.1.04.03-.05.09-.05.19.01.25.2.74 2.3 1.59 4.81c.28.82.1 1.87.72 2.85q1.01 1.59 1.28 3.77.02.17.19.12.15-.04.23.07.07.1.11.24.97 3.29 2.3 6.26.42.94.53 1.91c.21 1.72 1.1 3 1.3 4.7q.22 1.87 1.15 3.58.81 1.51 1.16 2.99.33 1.38.93 2.67 1.23 2.65 1.65 5.33.07.51.38.93.58.81.78 1.86.04.21.25.26.39.08.47.47.63 2.98 1.36 6.04.04.19.22.25.28.09.26.39-.12 1.61.33 3.1 2.87 9.41 5.94 18.21 2.01 5.77 3.5 11.29.03.09.05-.01.01-.04.05-.08.18-.15.24.08 1.63 6.06 3.59 11.73.25.72.64 1.35.39.62.6 1.34 1.09 3.59 2.36 6.89.16.42.45.76.31.38.24.86-.07.53.17 1 2.52 5 4.29 11 .04.13.2.13.07.01.09.08 1.16 5.44 3.23 10.2.05.11.03.24-.02.13-.05.26a1.83 1.76-47.6 0 0 .02.75q1.05 4.54 1.92 9.53.27 1.55.84 3.08.52 1.39.61 2.95.06 1.24 1.03 2.63a1.32 1.31 32.6 0 1 .21.94q-.13.76.37 1.18.38.32.27.8-.34 1.45.65 2.46.34.36.48.83 2.45 8.26 5.35 16.59.04.11-.05.19-.09.07-.04.18 1.8 4.48 2.92 9.77.54 2.59 1.48 4.78.03.09.07 0 .02-.06.08-.05.18.03.22.2.37 1.57.73 3.14.08.33.38.51.12.07.22.17.23.22.31.56 1.97 8.48 5.17 16.82.04.12.03.24-.01.15-.11.26-.11.13-.06.3l3.13 9.49a1.19 1.18 46.7 0 1-.02.79q-.3.75.32 1.01.92 3.08 1.96 5.9.04.12-.01.22-.09.19-.3.27a.03.03 0 0 0 .02.06q.49-.05.58.32.35 1.35.94 2.57.59 1.21.92 2.53.99 3.94 2.44 7.63a1.88 1.83 39.8 0 1 .1.96q-.16 1.08.66 1.6a.92.91-73.7 0 1 .42.77v1.45a1.42 1.4-60.1 0 0 .18.69q1.5 2.62 2.03 5.07.55 2.49 1.33 4.98.19.61.53 1.16.3.48.22 1.08-.08.52.09 1.03 1.24 3.71 2.36 7.71.6 2.14 1.86 3.9.29.41.33.91c.11 1.57 1.19 2.65 1.66 4.11q.97 2.95 1.75 6.06.39 1.55.95 3 .62 1.56.76 3.17.2 2.35 1.14 4.43 2.3 5.06 3.99 10.35.32 1.01.55 2.12.22 1.06.77 2.03.24.42.29.9 1.11 9.92 3.53 15.19 2 4.36 4.27 8.68 1.41 2.67 4.45 5.02.42.32.95.3c.67-.03 1.18.49 1.99.53q2.48.14 3.69-1.35 2.61-3.21 3.65-7.02.49-1.79 1.1-3.46.65-1.81.84-3.82.02-.31.18-.49.17-.2.37-.36a1.91 1.87 76.5 0 0 .69-1.15q1.07-5.77 2.78-10.21 1.05-2.74 1.48-5.75.09-.63.63-.95.48-.29.6-.85.83-3.95 2.02-6.9 1.77-4.4 3.16-9.85.03-.14.18-.14.05 0 .1-.03.17-.1.22-.3.74-2.65 1.62-5.29c.35-1.06.06-1.77.69-2.79q1.76-2.87 1.83-5.75.02-.5.46-.75.37-.2.26-.67-.09-.42.04-.82 4.09-12.2 8.11-24.31.82-2.45 1.88-5.01 1.01-2.44 1.7-5.15 1.39-5.51 3.14-11.22.05-.14.2-.16.06-.01.13-.04.06-.03.08-.1 6.79-19.91 12.57-37.84 2.09-6.49 4.54-15.17c.3-1.07 1.01-1.76 1.15-2.83q.07-.53.52-.82l.29-.19q.41-.27.54-.74.69-2.43 1.51-4.54.08-.19-.05-.36-.1-.12-.11-.3-.02-.25.22-.34.64-.25.58-1-.05-.53.17-1.01.87-1.9 1.02-4.13.02-.2.19-.27.27-.12.34-.4l1.87-7.38q.04-.16.21-.17.24-.02.33-.11.08-.09.12-.21 1.44-4.63 3.08-9.34.12-.35.08-.71-.04-.4.28-.61.36-.23.5-.64.7-2.14 1.06-4.22.2-1.16.69-2.29.45-1.05.84-2.01.05-.12.18-.13.13-.01.19.22a.04.04 0 0 0 .07 0q.71-1.74.95-3.55c.36-2.65 1.66-5.52 2.49-8.15q.05-.16 0-.39-.1-.41.05-.8 1.55-4.01 3.09-8.41c.52-1.49.35-3.13 1.05-4.52q.56-1.09.95-2.26 3.45-10.17 6.47-19.34.19-.56.15-1.15c-.05-.91.75-1.66 1.05-2.52q.9-2.59 1.62-4.99.54-1.82 1.29-3.87 2.73-7.46 5.46-16.6 2.02-6.79 4.18-12.4 2.1-5.47 4.21-12.07 4.52-14.07 9.19-28.09.68-2.02 1.23-4.31.12-.49.45-.87c.48-.57.37-1.59.61-2.38q.63-1.99 1.44-4.33a2.35 2.29 55 0 0 .14-.85q0-1.26.56-2.22.36-.62.42-1.33.08-1.06.73-1.9.31-.41.4-.91.31-1.77 1.03-3.41.69-1.56 1.15-3.31.4-1.51.97-2.95.62-1.56 1.09-3.3.61-2.28 1.64-4.22.99-1.86 1.15-4.27.02-.22.15-.41.1-.14.23-.26.36-.35.44-.84.44-2.88 1.77-5.66 1.02-2.12 1.51-4.37.6-2.8 1.76-5.23 1.09-2.28 1.58-4.15.56-2.13 1.24-4.24.02-.08.1-.12.05-.03.08.02.17.24.25-.04 1.53-4.99 3.16-9.8.07-.2-.08-.37-.09-.1-.04-.24 3.53-10.36 6.85-20.82 1.58-5.01.17-10-.14-.49-.59-.7l-1.5-.72q.41-1.34-.07-3.13.71.47.95-.21 8.58-24.9 16.64-49.95 3.57-11.1 6.22-19.01 13.34-39.78 26.37-78.54 5.89-17.55 6.42-18.93 7.1-18.61 19.34-35.55 6.52-9.03 10.37-13.52.49 2.08.94 4.18.43 2.03.22 4.22-.52 5.28-.53 8.37c-.16 51.08-.32 102.17-.4 153.25q-.04 22.9-.56 45.8c-.17 7.73-1.46 14.44-2.7 21.67q-.47 2.73-1.4 5.69c-.82 2.63-1.31 5.2-2.35 7.75-3.06 7.5-4.71 14.94-7.59 22.42q-1.92 4.97-3.49 11.73-.53 2.28-2.06 4.4a1.72 1.7 62.6 0 0-.32 1.03q.03 1.01-.36 2.06-2.4 6.42-4.21 12.96c-.65 2.34-1.7 4.22-2.22 6.74q-.65 3.16-2.32 6.65-1.6 3.34-2.53 6.35c-1.51 4.89-2.49 9.95-4.51 14.73q-2.42 5.74-4.9 11.28c-1.26 2.8-1.14 5.84-2.07 8.67-1.44 4.42-3.03 8.72-4.27 13.15q-4.83 17.34-7.69 25.11-7.66 20.83-12.2 35.61c-1.66 5.43-3.66 10.68-5.19 16.02q-3.94 13.76-9.1 27.57-.85 2.29-1.3 4.8-.73 3.98-2.74 7.62c-1.29 2.33-1.49 4.57-2.32 6.99q-6.18 18.04-11.95 36.2-1.24 3.89-2.92 7.31c-.93 1.9-.47 3.91-1.45 5.68-1.14 2.04-.97 4.11-2.16 6.08-1.05 1.73-.98 3.82-1.84 5.76q-3.62 8.12-5.98 17.68c-.61 2.46-1.93 4.67-2.55 7.13q-1.8 7.19-4.24 13.22-2.4 5.94-3.92 11.55-3.17 11.74-7.19 21.92c-3.07 7.76-5.03 16.13-8.02 24.08q-1.04 2.77-1.75 5.67-.65 2.67-1.81 5.7-1.31 3.45-2.09 7.29-.55 2.68-1.89 5.29c-1.19 2.32-1.43 4.97-2.38 7.41-1.7 4.36-3.76 8.68-4.97 13.21q-1.36 5.05-2.49 9.99c-.6 2.61-2.24 4.53-2.91 7.11-.82 3.17-1.77 6.41-2.97 9.46q-6.84 17.4-11.02 34.19c-.93 3.74-3.12 7.01-4 10.59q-.79 3.2-1.88 6.03-2.87 7.46-6.26 16.33-.6 1.58-.68 3.34-.02.53-.27 1-1.22 2.38-1.52 4.91-.14 1.16-.97 2.04a1.56 1.56 0 0 0-.42 1.09q.04 2.2-.97 4.24c-.95 1.92-1.03 3.93-2.02 5.84q-.58 1.1-.76 2.32-.52 3.45-2.59 6.16-.33.44-.29 1l.1 1.36a2.44 2.38-34.5 0 1-.25 1.26q-3.87 7.88-5.86 15.93-1.39 5.61-3.26 10.81-1.99 5.53-3.82 11.89-.7 2.43-2.3 4.9-1.16 1.79.44 3.2.4.35.06.76-2.13 2.54-3.16 5.48-.6 1.72.63 3.51a.95.94-39.4 0 1-.12 1.22q-2.76 2.62-3.23 7.05-.33 3.07-2.62 6.26-.32.46-.35 1.01-.24 5.11-3.11 9.04c-1.35 1.85-.67 3.83-1.88 5.47q-1.14 1.55-1.56 3.8c-.18.97-.74 1.96-1.62 2.46a.97.97 0 0 0-.26 1.48q29.81 35.24 72.09 52.37c7.95 3.22 16.41 5.14 24.82 7.53q4.97 1.4 9.83 1.98 8.8 1.05 17.73 2.29c16.76 2.32 33.37.93 49.96-2.9 8.15-1.88 16.35-2.94 24.32-5.69q16.13-5.56 31.07-14.12-.83 5.06-4.57 7.08-2.39 1.29-3.88 2.2-2.14 1.31-4.01 2.07-4.67 1.9-8.94 4.01-4.48 2.21-9.21 3.79-9.21 3.09-19.18 4.73-1.48.25-2.87.7-1.37.45-2.93.69-2.18.34-4.35.88-7.56 1.89-14.38 2.47-7.73.67-16.85.59-7.34-.06-16.73-1.27-8.61-1.12-17.59-2.43-3.44-.5-7.08-1.39-3.67-.91-7.01-1.93-4.37-1.34-8.24-2.28-1.96-.48-3.92-1.25-2-.8-4.02-1.5-2.69-.94-5.66-2.41-3.58-1.79-7.52-3.48-9.06-3.92-18.54-10.2-2.61-1.74-5.02-3.59-2.47-1.91-5.02-3.72-2.75-1.95-5.34-4.18-2.55-2.19-5.25-4.25-3.23-2.47-6.06-5.56-1.06-1.16-2.39-2.18-1.34-1.03-2.52-2.07-.41-.36-.53-.89c-.41-1.7-2.08-2.13-3.09-3.36q-1.82-2.2-3.25-4.63-.25-.43-.2-.92.18-1.71-.97-2.93-.59-.62-.31.19.42 1.23.3 2.55c-.22 2.42 1.49 2.96 2.55 4.69q.49.81.96 1.63.24.41.65.68.56.36 1.04.82 4.31 4.15 8.66 8.91 2.52 2.77 5.43 5.12 5.56 4.48 11.98 9.43 2.09 1.62 4.35 2.91 2.25 1.28 4.33 3.03.37.31.85.39c1.09.2 1.51.97 2.46 1.47q3.93 2.06 8.19 4.46 5.5 3.11 11.59 6.31 2.19 1.15 4.68 1.68 2.63.56 4.95 1.76c.61.32 1.27.35 1.95.47q.5.09.89.39.82.64 1.84.43.31-.07.42.23.08.23.32.3 4.51 1.27 8.75 2.84.47.18.96.12.97-.11 1.74.24 1.64.75 1.75.78 5.99 1.54 12.11 2.49.22.04.45-.01t.35.13q.21.3.57.34 5.66.66 10.92 1.32.14.02.29-.02.17-.04.23.12.15.36.53.36 4.54.02 9.22.69 2.48.36 5.51.28 2.63-.07 5.27.02c2.5.09 4.88-.36 7.44-.17q2.65.2 5.4-.15 12.26-1.54 22.51-3.62c1.99-.4 3.76-1.62 5.79-1.7 1.68-.07 3.05-.77 4.64-1.02q5.55-.9 11.36-2.18a1.42 1.4-75.4 0 0 .77-.46q.45-.5 1.14-.71 3.82-1.11 7.46-2.78 3.57-1.65 7.29-3.11 2.38-.94 4.74-2.3 2.17-1.25 4.75-2.35 3.22-1.38 5.61-3.5 1.16-1.04 1.62-2.53.44-1.47.7-2.97.08-.48.53-.65.79-.32.56-1.17.29-.35.34-.66l1.62-.51q-.41 2.31-1.28 4.52-.39 1-.5 2.01c-.22 1.85-2.86 3.95-4.16 5.24a1.09 1.08 25.1 0 1-.87.31q-.37-.04-.69.18-6.46 4.4-15.33 7.64-2.11.77-4.07 1.67-1.78.83-3.44 1.35-1.67.53-3.28 1.48-.41.24-.83.04-.48-.23-.95-.02-.46.21-.92.33-3.63.99-7.26 2.2-3.55 1.18-7.35 1.82-5.8.98-11.3 2.26-1.5.35-2.9.33-1.02-.01-1.92.51-1.06.61-2.18.73-20.13 2.24-30.84 1.35-3.17-.26-6.11-.36-.49-.02-.88-.32-.75-.56-1.74-.46-.85.09-1.75-.05-4.8-.75-10.11-1.4c-3.03-.37-5.92-1.14-9-1.05q-.51.02-.94-.27-.45-.29-.99-.33-2.61-.17-5.11-1.02-6.79-2.3-12.42-3.34-3.71-.69-6.93-2.1-6.18-2.7-12.09-4.82-2.41-.87-4.99-2.18-2.04-1.04-4.01-2.14-4.46-2.48-8.89-4.52a.83.81 3.8 0 1-.43-.48q-.16-.46-.6-.47-.48-.01-.87-.29-.98-.72-2.04-1.23-1.12-.54-2.14-1.27-6.12-4.38-12.31-8.44-.93-.61-1.69-1.49-.83-.96-1.8-1.62-3.1-2.09-5.89-4.96-.35-.36-.82-.53-.98-.36-1.62-1.09-1.15-1.3-1.26-1.4-3.81-3.33-7.51-7.25-.8-.85-1.24-1.89-.49-1.13-1.42-1.92-2.89-2.46-4.14-5.23-.87-1.92-.61-4.23.4-3.59-2.44-5.33-.44-.26-.44-.77v-.25q0-.61-.39-1.08-16.37-19.82-26.24-43.47-2.76-6.6-6.64-18.73-19.38-60.48-38.23-119.95-.11-.34-.47-.38l-.35-.04q-28.79-93.13-58.75-185.81-3.06-9.45-6.09-19.06-42.44-134.59-84.24-265.45-.72-2.26-1.7-.1c-1.12 2.47-2.37 4.73-3.12 7.34q-1.12 3.89-1.94 7.6c-.96 4.29-3.08 7.97-4.48 12.04q-.21.6-.66 1.04-1.37 1.34.03 2.86.39.43.01.87-2.9 3.25-2.77 7.96.07 2.49-1.52 4.36-.38.45-.38 1.03 0 2.84-1.66 5.34-.3.45-.29.98.01 2.33-1.16 4.29a2.9 2.87 60.3 0 0-.41 1.52c.04 3.44-3.21 4.52-2.39 8.33.61 2.89-.79 6.3-1.92 8.91-.72 1.65-.49 3.48-1.01 5.22-1.36 4.57-3.3 9.05-4.06 13.65q-.64 3.86-2.25 7.09-1.43 2.87-2.06 5.87-2.05 9.78-5.72 20.65-.4 1.2-1.13 2.29c-.88 1.33-.67 2.88-1.46 4.38-1.28 2.42-.81 5.6-1.86 8.25q-1.43 3.67-2.31 7.52c-.46 2.05-1.5 3.73-2.34 5.63-1.45 3.27-2.16 6.71-3.24 10.08q-.86 2.69-1.51 5.98-.96 4.85-2.44 9.11c-1.32 3.82-1.44 8.11-3.58 11.65q-1.1 1.82-1.49 4.11-.42 2.41-1.28 5.87-2.6 10.38-5.75 18.25-1.68 4.2-2.1 7.41-.53 4.15-1.82 7.47-.43 1.14-.77 2.23-3.58 11.83-6.91 23.95c-.61 2.22-1.77 4.13-2.18 6.39q-.46 2.54-1.26 4.91-7.3 21.75-12.1 39.84-.32 1.21-.51 2.52-.16 1.11-.5 2.1c-1.21 3.5-1.86 7.17-3.4 10.54q-3.41 7.44-4.7 13.65-2.05 9.8-4.85 18.19-6.17 18.49-11.82 40.55c-.58 2.28-1.7 4.33-2.2 6.53q-2.03 9.09-5.68 17.82c-1.87 4.48-1.51 9.42-4.2 13.54-.97 1.48-.7 3.02-1.21 4.59q-3.23 9.89-5.63 19.3c-.99 3.88-3.25 6.8-3.62 10.95-.26 2.85-1.8 4.92-2.36 7.65q-.89 4.35-2 8.89c-.81 3.36-2.42 6.21-3.03 9.57q-.66 3.59-2 7.25-3 8.15-5.54 17.91-.46 1.77-1.32 9.04-.57 4.83-2.49 9.59-1.46 3.65-2.21 7.29-.96 4.69-2.85 9.52-1.18 3.03-1.6 6.14-.63 4.74-2.75 9.3-.97 2.1-.55 4.28a2.26 2.2 53.7 0 1-.2 1.42c-1.75 3.45-2.12 7.03-3.52 10.58l-3.39 8.59q-.96 2.41-1.45 4.77-.53 2.52-1.22 5.04c-.46 1.73-1.6 2.94-1.33 4.85q.07.53-.17 1l-1.9 3.71q-.26.5.02.98l.67 1.16q.21.36.05.75l-3.12 7.76q-.2.49-.09 1.01l.43 2.18a1.23 1.22-33 0 1-.21.97c-2.27 3.16-3.79 6.38-4.36 10.4q-.3 2.17-1.09 4.79-1.72 5.72-3.88 11.77-4.91-5.36-11.51-14.05-12.73-16.76-20.91-35.06-2.83-6.31-7-18.73-22.31-66.38-44.57-132.78-92.82-276.87-185.64-553.75c-7.14-21.3-9.3-44.72-7.67-67.51q.72-9.97 2.64-19.84 8.29-42.39 34.34-77.22 3.34 1.63 3.47 4.61-1.69-.09-1.91 1.72-.29 2.32-.01 3.43.6 2.33 1.55 4.88.91 2.45 1.49 4.94.61 2.59 1.88 4.82.22.39.26.83.18 1.93 1.62 3.56a1.74 1.72 20.8 0 1 .41.9q.1.73.47 1.4 1.8 3.24 3.09 6.67.38 1.03.55 2.07.15.99.64 1.99.38.76 1.05 1.28.74.57.73 1.39-.01.36.34.45.17.05.32 0 .66-.2.54.49-.02.13.04.26.07.18.25.12l.1-.04q.5-.24.44.32-.02.17.08.31.32.48-.22.27-.24-.1-.28.14a3.89 3.37-58.9 0 0 .43 2.49q.4.66.24 1.34-.11.48-.03.97l.52 2.98q.08.46.47.74c.7.49 1.19.93 1.37 1.83q.64 3.18 1.34 6.44.1.46.41.82.54.63.45 1.44a1.97 1.88 39 0 0 .12.94q.96 2.51 1.67 5.11.26.96.76 1.74.63.97.73 1.99.23 2.24 1.34 4.21a2.39 2.36 29 0 1 .31 1.05q.12 2.09 1.19 3.88.28.45.3.98.06 1.35.7 2.46.46.81.52 1.75.04.6.46 1.03.41.41.44.97.02.65.23 1.26 1.26 3.61 2.47 7.14.65 1.9 1.47 3.87 1.35 3.24 1.95 6.92.33 1.94 1.5 3.71a1.37 1.37 0 0 1 .21.96q-.14 1.01.46 1.85.26.35.33.78.49 2.76 1.72 5.74 3.01 7.25 4.84 16.04.01.06.05.11.09.11.21.17.3.16.38.49.86 3.31 1.92 5.44 2.03 4.08 2.49 7.95.03.19.15.33.13.15.33.22a.6.59-80.1 0 1 .4.58q-.03 1.25.69 2.38.28.43.32.94.07 1.02.66 1.86c.43.61.58 1.48.68 2.21q.13.89.59 1.7 1.12 2 1.71 4.2.89 3.34.94 3.47 2.16 6.62 4.47 13.19c.23.66.07 1.24.35 1.81q1.08 2.14 1.02 4.8-.01.52.25.97 1.18 2.11 2.29 4.25.13.24.66 2.15.3 1.04 1.18 2.04.69.78.72 2.09.02.5.29.91 2.01 2.98 3.17 6.38c.37 1.08 1.15 1.55 1.38 2.66q.16.77.44 1.47 1.29 3.3 2.48 6.77.89 2.57 2 4.95.21.43.21.91v1.16q0 .49.38.8.5.41.41 1.11-.08.56.09 1.1.74 2.37 1.82 4.47.34.66.41 1.37.08.74.31 1.42.31.97.4 1.93.14 1.49 1.07 2.84a.69.67-52.5 0 1 .07.63q-.13.34.02.64 1.97 3.97 2.65 7.33.26 1.3.8 2.26.52.9.82 1.9 1.37 4.49 2.44 8.73.12.51.52.84.43.35.46.87.04.56.23 1.11 1.41 4.06 2.19 8.3.02.12.16.16.15.05.24.19.05.08.03.16-.28.97.44 1.54a1.62 1.56 10.1 0 1 .48.66q.27.67.29 1.39.02.74.33 1.45 1.54 3.53 3.08 7.07a.35.34-39.2 0 1-.04.36q-.15.18-.06.37c.64 1.4.96 2.86 1.58 4.29q1.69 3.93 2.34 8.22.08.52.42.93.82.97.64 2.27-.06.51.23.93.52.75.52 1.67a1.99 1.97-57.6 0 0 .2.91q.14.28.39.44a.84.83 21.2 0 1 .38.84c-.28 1.61.84 2.26 1.34 3.63q1.47 4.07 2.74 8.38.82 2.77 1.86 5.14 1.03 2.33 1.5 5.03.53 3.08 2.02 6.07.58 1.16.95 2.64.35 1.37 1.1 2.62.25.42.21.91-.03.48.39.68.5.23.55.77.05.5.33.91.35.53.26 1.17-.18 1.15.55 1.97a.94.93 31.2 0 1 .21.85q-.15.56.3.89.48.35.67.91 1.66 4.85 3.77 10.15 1.61 4.01 2.29 8.36.04.25.28.31.31.09.36.4.74 4.26 2.34 8.49.59 1.56.9 3.26.22 1.23.86 2.33.77 1.31 1.05 2.72.03.12.11.19.28.26.62.04a.05.04-21.2 0 1 .07.03q.78 3.64 2.1 7.46c.41 1.21 1.17 1.92 1.23 3.28a2.09 2.06 28.7 0 0 .27.9q1.28 2.16 1.24 4.77-.01.56.28 1.03.66 1.05.93 2.17.29 1.23.87 2.37.87 1.7 1.09 3.56c.17 1.44.92 2.75 1.14 4.11q.26 1.61.78 3.01.92 2.43 1.87 4.76.62 1.5.89 3.1l.58 3.43q.04.21.14.38.08.13.22.14.46.03.61.46.57 1.64.72 2.87.01.06.04.11.08.14.21.21.32.15.42.48 1.19 3.91 2.22 8.02.93 3.68 2.64 7.89 1.76 4.36 3.14 9.16.16.55.27 1.12.42 2.33 1.53 4.75 1.06 2.3 1.7 4.77.94 3.65 2.78 7.28.25.49.19 1.04-.07.65.3 1.09.32.37.46.84 1.21 4.03 2.78 8.54.28.8.58 1.54 1.32 3.18 2.15 6.67.37 1.53 1.21 3t1.26 3.11q.92 3.66 2.35 7.11a.52.51 85.4 0 0 .36.31q.42.1.32.45-.04.16 0 .31.89 3.03 1.86 5.76 1.15 3.25 2.34 7.07c.32 1.01.98 1.74.84 2.8a2.04 2.03-52.1 0 0 .12.97q3.65 9.31 6.1 19.23.06.23.29.31a.46.44 87.3 0 1 .31.29q1.56 4.74 2.69 9.73.37 1.63.92 3.23.54 1.58 1 3.23.06.21.19.38.13.18.06.37-.12.32.01.63l1.84 4.42q.19.43.11.9-.19 1.13.54 2.06.3.39.41.87.99 4.37 2.97 8.38 1.07 2.15 1.59 4.11.57 2.13 1.35 4.16 1.04 2.69 1.35 5.32.14 1.21.65 2.19.59 1.11 1.24 2.18c.66 1.06.89 2.22 1.63 3.31q.78 1.14 1.29 2.53 2.08 5.71 3.92 11.74.48 1.57 1.46 3.46.86 1.68 1.48 3.8 2.11 7.27 2.86 14.08.12 1.08.44 2.11.33 1.07.57 2.15.34 1.56 1.44 2.98 2.04 2.6 3.42 5.67.2.44.2.92.02 1.21.97 1.99c.41.34.61.73.81 1.22q.19.44.6.68l2.32 1.35q.59.34 1.18-.01 3.25-1.94 3.82-5.58.08-.49.36-.89.72-1.01.9-2.26.07-.49.4-.86.64-.75.44-1.71-.09-.49.06-.97 1.12-3.42 2.02-7.22.11-.49.09-.94-.02-.69.66-1.06a.41.41 0 0 0 .21-.25l7.25-26.05q.09-.34.06-.7-.04-.56.3-1.04.8-1.13.83-2.59.01-.47.36-.78.26-.24.33-.58.76-3.69 2.05-7.04 1.24-3.24 1.95-6.42.54-2.39 1.43-4.67.98-2.49 1.58-4.87 1.53-6.08 3.44-11.76.34-.99.41-2.02.08-1.06.73-2.07.24-.35.23-.78-.02-1 .48-1.85.45-.78.6-1.64.43-2.57 1.38-4.89.96-2.34 1.68-5.39 1.42-5.99 3.65-12.42 1.49-4.33 1.85-7.34.05-.48.33-.88.54-.77.72-1.73.38-2.03.76-3.9.4-1.98 1.17-3.81.8-1.87 1.01-3.73.18-1.6.83-2.97.77-1.61.88-3.32.06-.88.5-1.72l1.07-2.04q.66-1.21 1.09-2.68 2.48-8.54 4.72-17.27.73-2.85 1.03-5.65.05-.4.35-.68.28-.26.02-.56a.29.28 64.8 0 1 .17-.48q.43-.05.55-.43 3.7-12.13 4.86-15.26 1.05-2.83 1.23-4.14.03-.22.19-.37l.23-.24q.34-.33.45-.79l2.94-11.45q.09-.36.45-.44.2-.05.24-.31.19-1.21.31-2.41.13-1.24.49-2.36 2.98-9.13 5.43-19.07.07-.28.27-.48.2-.2.32-.46.22-.43.13-.91-.17-.89.44-1.45.41-.38.36-.94-.07-.91.4-1.64 1.41-2.21 1.47-5.02.01-.57.37-1.03.52-.67.27-1.47-.57-1.81 1.07-3.1.31-.24.33-.64.06-1.13.65-2.17.36-.63.4-1.3.04-.81.01-1.58-.01-.4.2-.74 1.08-1.7.7-3.62-.06-.32.26-.4.17-.04.26-.19.19-.29.2-.63.04-.83.3-1.52.02-.07.03-.13 0-.01-.26.06a.09.09 0 0 1-.1-.14l.84-1.34q.28-.44.43-.94l1.23-4.15q.1-.33.08-.67-.02-.68.5-1.2.35-.36.39-.87.15-1.93 1.56-3.13.39-.33.47-.83.37-2.33 1.23-4.42.33-.83.42-1.74.09-.87.41-1.7 1.64-4.19 2.49-8.83.18-.95.68-1.77.51-.84.77-1.82.8-2.88 1.44-5.69.42-1.84 1.17-3.57.93-2.12 1.1-4.79.01-.22.23-.19.15.02.25-.07.18-.19.23-.44 1.02-4.84 2.68-9.52.19-.53.1-1.08-.18-1.03.47-1.72.41-.45.46-1.06.24-3 1.52-5.61 1.35-2.77 2.04-5.7.47-1.98 1.2-3.81.84-2.09 1.38-4.32 1.64-6.76 3.73-13.46.3-.98.8-1.76.57-.91.63-2 .03-.71.32-1.32.39-.82.74-1.53.42-.86.55-1.73.23-1.55 1.01-3.04.21-.39.13-.83-.15-.91.4-1.62.31-.41.35-.92.11-1.25.51-2.45.42-1.28.42-2.57-.02-3.72-1.26-7 .53-2.47 1.64-5.2.38-.97.27-2.02-.1-.9-.33-.03l-.49 1.84a.52.52 0 0 1-.68.35c-1.34-.49-1.72-1.73-1.46-3.04.88-4.38-1.1-9.53-2.03-13.77q-.29-1.36-2.47-5.7-.22-.46-.1-.95l.24-.91q.15-.57-.19-1.05-.97-1.36-.93-3.1.02-.63-.32-1.16-2.11-3.35-2.84-7.02-.54-2.77-1.64-5.3c-1.01-2.34-2.07-4.68-2.88-7.08q-7.92-23.44-16.06-46.81c-2.36-6.77-3.93-13.97-6.55-20.49-2.91-7.21-4.62-14.5-7.25-21.39q-1.7-4.47-2.82-8.86c-1.04-4.12-3.33-7.75-4.55-11.8-2.85-9.55-5.7-19.11-9.16-28.83q-11.19-31.49-21.52-63.78c-1.13-3.54-1.36-7.2-2.95-10.5q-3.09-6.36-4.71-12.37-.59-2.2-1.67-4.4-.31-.63-.29-1.33.1-3.14-2.43-5.38-.58-.51-.33-1.24.55-1.63-.65-3.28a2.08 2.06-63.1 0 1-.39-1.21q-.01-1.88-.18-3.74-.15-1.76-1.13-3.99-3.44-7.82-4.95-16.17Z"/><path fill="#4c4c4b" fill-opacity=".369" d="M1033.84 1221.74q-.81.85-2.17 1.53l-1.62.51q-1.13-3.05-.31-4.8 1.48-3.17 2.59-6.53a2.13 1.99-15.4 0 1 .51-.83q1.87-1.86 2.62-4.19 5.46-17.05 12.29-36.85c1.07-3.08.22-5.66 2.3-8.55q.32-.45.39-.99.3-2.35 1.64-4.31.29-.43.27-.94-.08-1.72.35-2.56 3.16-6.17 3.8-8.49c1.6-5.74 3.41-11.11 4.94-16.69q1.83-6.67 4.5-13.78 2.66-7.06 4.8-13.66 5.92-18.32 12.9-39.31.22-.67.46-1.37 11.44-33.63 21.36-64.41c5.76-17.87 15.67-45.95 24.18-72.33q10.73-33.24 17.09-51.24.49-1.37.86-2.79.37-1.37.9-2.78 1.21-3.21 2.29-6.51 6.94-21.11 13.86-43.04.58-1.84 1.57-3.55c.77-1.34.67-2.57 1.08-3.98q2.73-9.22 5.96-17.99c2.19-5.96 3.82-12.29 6.14-18.26q1.32-3.37 2.45-7.14 4.32-14.28 13.89-41.83 9.16-26.34 21.08-63.28 8.65-26.83 18.32-55.42 3.16-9.34 6.28-18.36 1.02-2.94 1.9-5.78 3.98-12.76 8-25.5 7.35-23.31 6.48-47.75-1.38-38.98-.15-77.81.07-2.3-.15-4.67c-.17-1.94.2-3.89.2-5.84q.03-61.19.14-120.1.01-1.47-.41-2.89-.56-1.94-.59-3.53-.23-9.66.33-18.42c.13-1.94 2.63-4.9-.27-6.2a1.89 1.88-77.9 0 1-1.11-1.72q-.06-15.95-.07-31.81c0-1.91 1.28-2.87 1.26-4.69q.2-.65.4-.96.51-.8.51.15v1.5q0 .48.47.55.27.04.23.31-.09.6.47.84c.92.39 1.37 1.08 1.33 2.11q-.14 3.79-.23 7.58-.04 1.63-.27 3.26-.25 1.81.24 3.59.13.5-.08.97-.59 1.32-.23 2.7.34 1.3.34 2.59-.03 5.43-.04 11.25 0 .43-.41.58-.15.05-.21.2-.1.26-.03.55.55 2.44.81 4.89.13 1.3.82 2.49.25.42.21.91-.12 1.41.37 2.63.17.42.09.88-.6 3.35-.79 6.7-.11 1.88-.43 3.71-.37 2.09.03 4.46.4 2.38-1.37 3.39-.35.21-.27.61.35 1.72.25 3.27-.01.23.09.45.18.37.59.4a.47.47 0 0 0 .52-.45q.01-.44-.03-.9-.02-.16.14-.16.05 0 .09.02.19.08.12.27-.42 1.19.65 1.7a.96.94-74.1 0 1 .53.97q-.2 1.7.13 3.27.08.38-.02.76-.31 1.24-.04 2.56.21 1.04.05 2.05-.71 4.61-.36 8.99.08 1.11-.01 2.14-.09.93-.04 1.86.13 3.14-.02 8.3-.27 9.33.27 19.56.14 2.53-.28 4.89-.47 2.66.15 4.97.12.43-.04.85-.56 1.53.11 2.99.22.47-.07.89a1.93 1.93 0 0 0-.24 1.77c.64 1.7-.02 3.08.21 4.8q.22 1.54-.12 3.19-.1.48.16.88.44.7.4 1.53-.12 2.44-.04 4.8.02.37-.21.67-.49.66-.15 1.43a1.25 1.21-48.5 0 1 .04.93q-.18.5-.18.99-.07 3.6.04 7.24.03.83-.22 1.71c-.24.85.22 1.56.22 2.4q.01 5.64-.16 10.48-.05 1.54.23 7 .19 3.51-.26 7.03a1.73 1.69-55.3 0 0 .17 1q.62 1.24 0 2.33-.22.41-.23.87l-.1 4.45a1.06 1.02-57.8 0 0 .1.49c.55 1.17-.02 1.8.05 2.91q.39 5.65-.25 11.37a21.93 21.16-44 0 0-.12 3.34q.37 8.02.13 16.87-.23 8.55.13 19.15.04 1.26-.32 2.26-.28.78.16 1.51a1.79 1.75 34.9 0 1 .22 1.17c-.67 4.06.39 7.74.15 11.51q-.06.84.18 2.48.14 1.02.13 2.55-.06 10.07-.25 20.14-.05 2.64-.51 5.16-.31 1.73-.38 3.46t-.4 3.42q-1.14 5.86-2.26 11.65a1.46 1.45 73 0 1-.42.8l-.33.34q-.16.16-.06.36.11.2.23.14.41-.19.24.23-1 2.6-1.66 5.69-.43 2.04-1.62 4.05-1.09 1.83-1.47 4.35-.28 1.9-.86 3.74-2.45 7.71-5.2 15.53-.24.69-.25 1.42c-.01.73.07 1.26-.17 1.98q-1.67 4.95-3.24 9.74a.73.72-1 0 1-.43.44q-.49.18-.44.67.04.43-.1.85-5.91 17.46-9.82 29.75-.93 2.91-2.1 5.97-.4 1.06-.64 2.26-.24 1.17-1.05 2.02a1.29 1.25 69.1 0 0-.34.79q-.1 1.69-.77 3.19-1.1 2.48-1.12 2.54-1.52 4.45-2.52 9.06-.62 2.89-2.02 5.32-.26.46-.25.99.02.79-.52 1.42-.38.44-.49 1.01l-.59 3.01q-.11.55-.53.92-.51.47-.45 1.25.11 1.2-.72 1.93-.3.27-.33.67-.09 1.36-.92 2.56a1.13 1.13 0 0 0-.18.88q.13.6-.32 1.04-.35.35-.4.84c-.1.99.03 1.74-.29 2.7q-5.3 15.68-10.58 31.94-.13.4-.27.82-2.66 7.9-5.4 15.87c-.85 2.48-1.17 4.98-2.15 7.42q-.05.13 0 .26.02.07.07.03.27-.19.18.12-.62 2.1-1.55 4.05-.93 1.95-1.23 3.9c-.29 1.89-1.4 3.33-1.96 5.18q-1.38 4.49-2.39 7.35a.02.01-39 0 1-.03 0q-.02-.27-.17-.26-.12.02-.17.14-1 2.97-1.96 5.96c-.54 1.67-.5 3.21-1.48 4.8q-.21.34 0 .69.54.92-.34 1.79a2.4 2.39-13.1 0 0-.57.91q-4.8 13.57-8.48 25.57-.52 1.7-1.29 3.22-.83 1.64-1.2 3.48-.25 1.24-.83 2.38-.66 1.3-.93 2.73-.38 1.95-.95 3.24-.54 1.24-1.31 2.9-.19.4-.12.84.17 1.13-.46 2.21-.46.8-.68 1.7-.6 2.49-1.51 4.93c-.3.82-1.04 1.58-1.01 2.41q.02.6-.18 1.19-2.2 6.51-4.23 12.69-.57 1.75-1 3.55-.29 1.2-.82 2.39-.5 1.13-.92 2.36-2.26 6.72-4.57 13.5c-.29.86-.05 1.97-.63 2.57q-.35.37-.5.85-.89 2.9-1.89 5.93-.96 2.89-1.79 6-.95 3.56-2.77 7.35-.21.45-.26.95-.13 1.23-.61 2.46-3.58 9.15-5.9 17.6-.56 2.03-1.44 4.1-.84 1.97-1.13 4.04-.07.54-.39.98-.95 1.32-.97 2.79 0 .49-.28.89-.48.71-.66 1.53-.79 3.54-2.23 6.75-.65 1.46-1.16 3.11-.48 1.59-.84 3.25-.12.57-.61.88-.57.36-.49 1.05.07.6-.14 1.17-1.35 3.71-2.38 7.41-.23.84-.6 1.61-.58 1.22-.67 2.55-.11 1.74-1.29 2.8-.55.49-.59 1.22-.09 1.69-.77 3.2-.76 1.69-1.22 3.26-1.02 3.44-2.33 6.91-.64 1.68-1.1 3.56-.47 1.93-1.21 3.68-.69 1.64-1.18 3.58-.59 2.27-1.51 4.01a1.93 1.84-32.7 0 0-.21.86q0 .89-.58 1.65-.29.38-.38.86c-.16.83.08 1.49-.22 2.35q-1.11 3.2-2.02 6.23-.3.98-.95 1.89c-.68.96-.5 1.97-.86 3.05q-.92 2.75-1.91 5.47-.26.7-.87 3.19-.27 1.08-.72 2.11-.46 1.03-.75 2.11-1.1 4.06-2.55 7.32-.19.41-.18.85 0 .47-.2.89-1.85 3.96-2.82 8.22c-.27 1.19-.9 2.09-1.24 3.32q-1.99 7.19-4.47 14.23-.65 1.84-1.08 3.74-.29 1.31-.88 2.44-.6 1.16-.87 2.39-.81 3.71-2.28 7.04-.18.42-.16.89.02.49-.24.91-2.22 3.55-2.8 7.16-.09.55-.57.83-.45.25-.45.76 0 1.75-1.13 3.23-.31.4-.39.89-.14.82-.42 1.71-5.49 17.07-12.58 38.49-.16.49-.61.74-.15.08-.24.21-.1.13-.15.29-1.76 5.09-3.52 10.3-.44 1.32-.45 2.64 0 1.15-.7 2.17-.3.44-.3.97.01 1.58-.72 3.05-.61 1.21-.89 2.38-.91 3.72-1.85 6.64-.13.39-.48.61-.27.17-.18.44.1.27.01.54l-1.15 3.55q-.3.9-.77 1.69-.52.87-.64 1.91-.14 1.23-.78 2.25-.43.69-.9 1.32-.48.65-.71 1.38-1.45 4.49-3.07 9.25-.97 2.83-1.42 5.4-.62 3.51-1.21 5.41-2.4 7.77-5.17 14.14a13.42 13.38 58.9 0 0-1.06 4.3q0 .04-.84 1.49-.43.74-.66 1.57-1.4 4.97-3.09 9.92-.17.51-.47.96-.31.47-.18 1.02.11.46-.27.75-1.02.77-1.51 2.25-.16.47-.63.62-2.57.85-2.62 2.41ZM579.53 265.4l2.6 1.6q.44.28.5.8l.81 6.9a3.5 3.46 20.6 0 0 .91 1.97l2.83 3.06a.43.43 0 0 1-.23.71c-.75.15-1.79.15-2.33.77q-.22.27-.14.61.15.61.75.73l1.74.35a1.68 1.64-9.2 0 1 1.08.76q1.72 2.83 1.95 6.16.15 2.24.75 4.4 1.07 3.86 2.42 7.95 3.43 10.32 6.82 20.59c.67 2.02.6 4.39 1.49 6.25q2.44 5.09 3.56 10.81.43 2.23 1.59 4.36c1.71 3.15 1.28 6.35 2.6 9.55 1.1 2.7 1.2 5.37 2.69 7.93q.27.46.27.99c.01 2.32 1.5 3.92 2.06 6.07q.98 3.75 2.55 7.77c.68 1.76.24 3.59 1.11 5.2 1.55 2.86 1.96 6.01 3.09 9.02q2.93 7.78 5.66 18.58c.55 2.18 1.66 4.09 2.32 6.18q3.5 11.09 7.35 21.92.68 1.89 1.1 3.89c.39 1.88 1.39 3.43 1.72 5.31.44 2.45 1.96 4.32 2.08 6.87.08 1.59.01 3.19.94 4.56q2.61 3.89 3.03 8.37.22 2.26 1.3 4.47 1.55 3.17 2.77 7.14 2.34 7.61 4.46 14.66.32 1.05.59 2.19c.45 1.92 1.56 3.34 1.78 5.27.35 3.11 2.11 6.49 3.26 9.4q.83 2.1 2.58 3.41.42.32.37.84c-.16 1.97-.22 3.97.36 5.88q1.21 3.97 2.22 8.05c.7 2.84 2.67 5.3 3.02 8.06q.66 5.29 3.17 10.54c.73 1.52.55 3.35 1.12 5.03 4.59 13.36 7.62 24.27 11.5 36.37q1.13 3.53 2.02 6.95.94 3.61 2.25 6.89.76 1.89 1.25 3.98c.44 1.86 1.58 3.34 1.99 5.25.91 4.26 2.91 7.89 4.13 12.06q.92 3.16 1.84 6.44a2.15 2.12-78.3 0 0 .66 1.02c1.39 1.21.98 3.4 1.61 5.08q1.1 2.9 1.5 6.04.34 2.7 1.36 5.02 1.78 4.09 2.78 8.49c.77 3.42 2.55 6.39 3.29 9.85.31 1.46 1.16 2.62 1.54 4.07q3.42 12.88 8.44 25.53c.49 1.22 1.47 2.22 1.84 3.44q1.48 4.92 3.79 9.56.32.62.27 1.32-.31 4.71 2.73 8.54.34.43.36.98.17 3.82.69 7.5.29 2.04 1.21 4.05c.88 1.93.87 4.02 1.62 5.95q1.19 3.07 2.03 6.08.85 3.05 1.94 5.94 3.62 9.59 5.82 18.07 1.85 7.11 3.86 12.35 1.58 4.1 2.7 8.27 1.08 4.03 2.69 7.85 3.51 8.34 4.59 16.08.08.6.49 1.05 1.99 2.16 2.18 5.08c.17 2.66 1.71 4.29 2.21 6.78q1.26 6.2 3.61 12.07 1 2.5 1.52 4.95c.48 2.33 1.42 4.29 1.97 6.59q.51 2.12.96 4.22.65 2.97 2.08 5.4 1.45 2.46 2.28 5.5 1.76 6.49 4.11 13.07c.39 1.09.19 2.07.71 3.23q4.09 9.19 5.93 16.54c.32 1.28-.09 2.31.53 3.62q1.5 3.17 1.3 6.67-.03.61.26 1.15 3.38 6.19 6.41 12.6c.9 1.92 2.65 2.8 3.53 4.68q.48 1.03.79-.06 3.19-10.9 6.42-20.47 13.93-41.25 24.73-75.23 3.02-9.51 6.23-19 10.37-30.56 21.65-65 9.83-30.02 22.74-68.56c2.19-6.55 4.15-13.51 6.35-19.93q13.53-39.41 26.41-79.04 3.32-10.24 6.26-18.98 12.58-37.43 25.04-74.96l1.5.72q.45.21.59.7 1.41 4.99-.17 10-3.32 10.46-6.85 20.82-.05.14.04.24.15.17.08.37-1.63 4.81-3.16 9.8-.08.28-.25.04-.03-.05-.08-.02-.08.04-.1.12-.68 2.11-1.24 4.24-.49 1.87-1.58 4.15-1.16 2.43-1.76 5.23-.49 2.25-1.51 4.37-1.33 2.78-1.77 5.66-.08.49-.44.84-.13.12-.23.26-.13.19-.15.41-.16 2.41-1.15 4.27-1.03 1.94-1.64 4.22-.47 1.74-1.09 3.3-.57 1.44-.97 2.95-.46 1.75-1.15 3.31-.72 1.64-1.03 3.41-.09.5-.4.91-.65.84-.73 1.9-.06.71-.42 1.33-.56.96-.56 2.22a2.35 2.29 55 0 1-.14.85q-.81 2.34-1.44 4.33c-.24.79-.13 1.81-.61 2.38q-.33.38-.45.87-.55 2.29-1.23 4.31-4.67 14.02-9.19 28.09-2.11 6.6-4.21 12.07-2.16 5.61-4.18 12.4-2.73 9.14-5.46 16.6-.75 2.05-1.29 3.87-.72 2.4-1.62 4.99c-.3.86-1.1 1.61-1.05 2.52q.04.59-.15 1.15-3.02 9.17-6.47 19.34-.39 1.17-.95 2.26c-.7 1.39-.53 3.03-1.05 4.52q-1.54 4.4-3.09 8.41-.15.39-.05.8.05.23 0 .39c-.83 2.63-2.13 5.5-2.49 8.15q-.24 1.81-.95 3.55a.04.04 0 0 1-.07 0q-.06-.23-.19-.22-.13.01-.18.13-.39.96-.84 2.01-.49 1.13-.69 2.29-.36 2.08-1.06 4.22-.14.41-.5.64-.32.21-.28.61.04.36-.08.71-1.64 4.71-3.08 9.34-.04.12-.12.21-.09.09-.33.11-.17.01-.21.17l-1.87 7.38q-.07.28-.34.4-.17.07-.19.27-.15 2.23-1.02 4.13-.22.48-.17 1.01.06.75-.58 1-.24.09-.22.34.01.18.11.3.13.17.05.36-.82 2.11-1.51 4.54-.13.47-.54.74l-.29.19q-.45.29-.52.82c-.14 1.07-.85 1.76-1.15 2.83q-2.45 8.68-4.54 15.17-5.78 17.93-12.57 37.84-.02.07-.08.1-.07.03-.13.04-.15.02-.2.16-1.75 5.71-3.14 11.22-.69 2.71-1.7 5.15-1.06 2.56-1.88 5.01-4.02 12.11-8.11 24.31-.13.4-.04.82.11.47-.26.67-.44.25-.46.75-.07 2.88-1.83 5.75c-.63 1.02-.34 1.73-.69 2.79q-.88 2.64-1.62 5.29-.05.2-.22.3-.05.03-.1.03-.15 0-.18.14-1.39 5.45-3.16 9.85-1.19 2.95-2.02 6.9-.12.56-.6.85-.54.32-.63.95-.43 3.01-1.48 5.75-1.71 4.44-2.78 10.21a1.91 1.87 76.5 0 1-.69 1.15q-.2.16-.37.36-.16.18-.18.49-.19 2.01-.84 3.82-.61 1.67-1.1 3.46-1.04 3.81-3.65 7.02-1.21 1.49-3.69 1.35c-.81-.04-1.32-.56-1.99-.53q-.53.02-.95-.3-3.04-2.35-4.45-5.02-2.27-4.32-4.27-8.68-2.42-5.27-3.53-15.19-.05-.48-.29-.9-.55-.97-.77-2.03-.23-1.11-.55-2.12-1.69-5.29-3.99-10.35-.94-2.08-1.14-4.43-.14-1.61-.76-3.17-.56-1.45-.95-3-.78-3.11-1.75-6.06c-.47-1.46-1.55-2.54-1.66-4.11q-.04-.5-.33-.91-1.26-1.76-1.86-3.9-1.12-4-2.36-7.71-.17-.51-.09-1.03.08-.6-.22-1.08-.34-.55-.53-1.16-.78-2.49-1.33-4.98-.53-2.45-2.03-5.07a1.42 1.4-60.1 0 1-.18-.69v-1.45a.92.91-73.7 0 0-.42-.77q-.82-.52-.66-1.6a1.88 1.83 39.8 0 0-.1-.96q-1.45-3.69-2.44-7.63-.33-1.32-.92-2.53-.59-1.22-.94-2.57-.09-.37-.58-.32a.03.03 0 0 1-.02-.06q.21-.08.3-.27.05-.1.01-.22-1.04-2.82-1.96-5.9-.62-.26-.32-1.01a1.19 1.18 46.7 0 0 .02-.79l-3.13-9.49q-.05-.17.06-.3.1-.11.11-.26.01-.12-.03-.24-3.2-8.34-5.17-16.82-.08-.34-.31-.56-.1-.1-.22-.17-.3-.18-.38-.51-.36-1.57-.73-3.14-.04-.17-.22-.2-.06-.01-.08.05-.04.09-.07 0-.94-2.19-1.48-4.78-1.12-5.29-2.92-9.77-.05-.11.04-.18.09-.08.05-.19-2.9-8.33-5.35-16.59-.14-.47-.48-.83-.99-1.01-.65-2.46.11-.48-.27-.8-.5-.42-.37-1.18a1.32 1.31 32.6 0 0-.21-.94q-.97-1.39-1.03-2.63-.09-1.56-.61-2.95-.57-1.53-.84-3.08-.87-4.99-1.92-9.53a1.83 1.76-47.6 0 1-.02-.75q.03-.13.05-.26.02-.13-.03-.24-2.07-4.76-3.23-10.2-.02-.07-.09-.08-.16 0-.2-.13-1.77-6-4.29-11-.24-.47-.17-1 .07-.48-.24-.86-.29-.34-.45-.76-1.27-3.3-2.36-6.89-.21-.72-.6-1.34-.39-.63-.64-1.35-1.96-5.67-3.59-11.73-.06-.23-.24-.08-.04.04-.05.08-.02.1-.05.01-1.49-5.52-3.5-11.29-3.07-8.8-5.94-18.21-.45-1.49-.33-3.1.02-.3-.26-.39-.18-.06-.22-.25-.73-3.06-1.36-6.04-.08-.39-.47-.47-.21-.05-.25-.26-.2-1.05-.78-1.86-.31-.42-.38-.93-.42-2.68-1.65-5.33-.6-1.29-.93-2.67-.35-1.48-1.16-2.99-.93-1.71-1.15-3.58c-.2-1.7-1.09-2.98-1.3-4.7q-.11-.97-.53-1.91-1.33-2.97-2.3-6.26-.04-.14-.11-.24-.08-.11-.23-.07-.17.05-.19-.12-.27-2.18-1.28-3.77c-.62-.98-.44-2.03-.72-2.85q-.85-2.51-1.59-4.81-.06-.19-.25-.2-.06 0-.09.05-.13.21-.1-.04.02-.14.1-.25.19-.26.04-.54c-.69-1.3-.5-2.54-.98-3.87q-.59-1.64-1.22-3.21-.48-1.19-.55-2.49-.08-1.43-.59-2.78-.5-1.35-.87-2.82-.25-.99-.7-1.91-.6-1.23-.8-1.84-2.75-8.3-5.53-16.6-.06-.17-.23-.19-.06 0-.09.04-.13.21-.06-.02.06-.19.14-.39.17-.42-.04-.83c-.68-1.36-.29-2.53-.8-3.93q-2.45-6.77-4.63-14.89-.8-2.97-1.71-5.78-.7-2.16-1.11-4.43-.41-2.26-.86-4.59-.4-2.12-1.45-4.13-1.02-1.96-1.59-4.05-.15-.52-.54-.9-.51-.49-.45-1.19.05-.53-.32-.91l-.32-.31q-.35-.36-.49-.84-3.35-11.68-7.16-23.2-.5-1.5-1.15-2.9-.7-1.49-.91-3.04a1.77 1.74 22.3 0 0-.39-.91q-1.22-1.45-1.63-3.2-1.4-5.99-3.28-11.47-1.01-2.92-1.66-5.98-.45-2.1-1.23-3.96-.83-1.96-1.36-4.01-1.65-6.44-3.97-12.21-.4-1.01-.59-2.1-.25-1.39-.82-2.7-.74-1.69-1.45-3.29-.15-.34.13-.57.38-.31.14-.75-.66-1.21-1.36-2.33-.47-.77-.53-1.69-.06-.89-.41-1.61-1.32-2.79-2.23-6.18.24-.77-.31-1.03a.68.65-85.3 0 1-.34-.42q-3.11-11.18-6.21-21.61a2.56 1.21 80.6 0 0-.11-.33q-1.93-5.04-3.51-9.86-.66-2-1.12-4.24-.54-2.64-1.91-4.58-.33-.45-.25-1.01.19-1.4-.42-2.71-1.23-2.69-1.76-5.48-.1-.49-.44-.85-.13-.14-.22-.32-.11-.19-.12-.4-.09-1.73-.75-3.33c-1.25-3-1.88-6.55-2.55-9.67q-.07-.34-.65-1.75-.25-.6-.3-1.27-.06-.82-.23-1.24-.29-.7-.68-1.36-.39-.67-.57-1.4-1.27-5.16-3.34-10.36c-.47-1.19-.31-2.35-.79-3.45q-1.1-2.52-1.62-4.71-.54-2.35-1.38-4.7-2.65-7.41-5.21-14.85c-.64-1.84-.69-3.93-1.98-5.41q-.33-.38-.23-.89.3-1.49-.56-2.59-.2-.25-.08-.54.23-.58.13-1.19-.66-4.07-2.71-7.65-1.71-2.99-2.77-6.38-1.61-5.12-3.41-10.47c-.39-1.15-.32-2.21-.48-3.39q-.09-.66.14-1.35.84-2.54 1.17-5.31ZM141.35 275.03c.45 2.13.24 3.98 1.25 6q1.66 3.31 2.56 6.64 1.45 5.38 4.83 9.97a1.68 1.66-63.6 0 1 .31.94c.04 3.21 1.49 5.38 3.47 7.66q.51.6.45 1.38-.19 2.33 1.9 3.67a1.55 1.54 25.2 0 1 .64 1.77l-.98 3.03q-.19.58.31.92c2.2 1.53 1.93 3.78 2.73 6.03q1.26 3.53 2.34 7.11 1.1 3.64 2.39 7.08 1.45 3.88 2.34 7.8c.55 2.41 1.65 4.33 2.74 6.49 1.07 2.1.87 4.24 1.75 6.36q1.91 4.57 3.32 9.59 2.69 9.61 5.2 18.27c.55 1.88 1.67 3.35 2.19 5.24q1.44 5.26 3.52 10.7.32.81.45 1.67.32 2.06 1.21 4.43 9.37 24.88 11.33 32.58 1.24 4.85 3.4 9.5.21.46.11.95l-.14.65q-.09.46.05.92c1.28 3.84 3.19 7.24 4.32 11.12 1.01 3.5 3.78 6.5 5.17 10.15q2.16 5.64 4 10.76.62 1.7 1.1 3.45c.43 1.58 1.2 2.96 1.62 4.56q.72 2.76 2.09 5.45 1.68 3.3 1.86 7.45c.08 1.66 1.27 2.51 1.79 4.06q3.8 11.19 7.19 22.47 2.04 6.79 4.31 13.39 2.4 6.97 4.58 13.37c1.15 3.37 1.56 6.92 3.11 10.13 1 2.07 1.26 4.27 2.06 6.42q3.19 8.57 6.26 16.78c.77 2.06.99 4.69 1.72 6.35q2.7 6.11 4.65 12.49c1.55 5.06 3.3 9.3 5.12 13.96.99 2.52 1.35 5.17 2.3 7.58q1.77 4.5 2.85 9.21c.77 3.36 2.44 5.71 3.4 8.85q8.1 26.55 17.01 51.12c1.54 4.24 2.43 8.79 4.05 13.07q4.13 10.87 5.88 17.09.65 2.31 1.51 4.46c1.68 4.18 2.52 7.57 4.1 11.69q.17.46.13.96l-.1 1.18q-.05.65.43 1.08 1.8 1.65 2.19 3.53 1.49 7.34 4.3 13.52c.7 1.52.42 3.37 1.16 4.59 1.81 3 2.15 6.55 3.3 9.89q6.23 18.21 12.16 37.86c2.12 6.98 4.89 14.05 7.23 21.09.88 2.65 2.45 5.48 3.13 7.74q2.5 8.3 5.15 16.34a1.81 1.75-80 0 0 .54.8q1.64 1.37 2.12 3.07 1.24 4.39 2.99 8.63c.51 1.25.15 2.51.7 3.67q1.6 3.41 3.2 7.03c.49 1.12.2 2.12.59 3.25q2.34 6.89 2.82 13.39.28 3.71 2.12 6.16c1.43 1.89 3.48 2.92 3.96 5.48.64 3.38 2.11 6.61 4.25 9.22a.37.37 0 0 0 .65-.13l113.4-380.46q1.24 3.28 1.26 7 0 1.29-.42 2.57-.4 1.2-.51 2.45-.04.51-.35.92-.55.71-.4 1.62.08.44-.13.83-.78 1.49-1.01 3.04-.13.87-.55 1.73-.35.71-.74 1.53-.29.61-.32 1.32-.06 1.09-.63 2-.5.78-.8 1.76-2.09 6.7-3.73 13.46-.54 2.23-1.38 4.32-.73 1.83-1.2 3.81-.69 2.93-2.04 5.7-1.28 2.61-1.52 5.61-.05.61-.46 1.06-.65.69-.47 1.72.09.55-.1 1.08-1.66 4.68-2.68 9.52-.05.25-.23.44-.1.09-.25.07-.22-.03-.23.19-.17 2.67-1.1 4.79-.75 1.73-1.17 3.57-.64 2.81-1.44 5.69-.26.98-.77 1.82-.5.82-.68 1.77-.85 4.64-2.49 8.83-.32.83-.41 1.7-.09.91-.42 1.74-.86 2.09-1.23 4.42-.08.5-.47.83-1.41 1.2-1.56 3.13-.04.51-.39.87-.52.52-.5 1.2.02.34-.08.67l-1.23 4.15q-.15.5-.43.94l-.84 1.34a.09.09 0 0 0 .1.14q.26-.07.26-.06-.01.06-.03.13-.26.69-.3 1.52-.01.34-.2.63-.09.15-.26.19-.32.08-.26.4.38 1.92-.7 3.62-.21.34-.2.74.03.77-.01 1.58-.04.67-.4 1.3-.59 1.04-.65 2.17-.02.4-.33.64-1.64 1.29-1.07 3.1.25.8-.27 1.47-.36.46-.37 1.03-.06 2.81-1.47 5.02-.47.73-.4 1.64.05.56-.36.94-.61.56-.44 1.45.09.48-.13.91-.12.26-.32.46t-.27.48q-2.45 9.94-5.43 19.07-.36 1.12-.49 2.36-.12 1.2-.31 2.41-.04.26-.24.31-.36.08-.45.44l-2.94 11.45q-.11.46-.45.79l-.23.24q-.16.15-.19.37-.18 1.31-1.23 4.14-1.16 3.13-4.86 15.26-.12.38-.55.43a.29.28 64.8 0 0-.17.48q.26.3-.02.56-.3.28-.35.68-.3 2.8-1.03 5.65-2.24 8.73-4.72 17.27-.43 1.47-1.09 2.68l-1.07 2.04q-.44.84-.5 1.72-.11 1.71-.88 3.32-.65 1.37-.83 2.97-.21 1.86-1.01 3.73-.77 1.83-1.17 3.81-.38 1.87-.76 3.9-.18.96-.72 1.73-.28.4-.33.88-.36 3.01-1.85 7.34-2.23 6.43-3.65 12.42-.72 3.05-1.68 5.39-.95 2.32-1.38 4.89-.15.86-.6 1.64-.5.85-.48 1.85.01.43-.23.78-.65 1.01-.73 2.07-.07 1.03-.41 2.02-1.91 5.68-3.44 11.76-.6 2.38-1.58 4.87-.89 2.28-1.43 4.67-.71 3.18-1.95 6.42-1.29 3.35-2.05 7.04-.07.34-.33.58-.35.31-.36.78-.03 1.46-.83 2.59-.34.48-.3 1.04.03.36-.06.7L374.7 910a.41.41 0 0 1-.21.25q-.68.37-.66 1.06.02.45-.09.94-.9 3.8-2.02 7.22-.15.48-.06.97.2.96-.44 1.71-.33.37-.4.86-.18 1.25-.9 2.26-.28.4-.36.89-.57 3.64-3.82 5.58-.59.35-1.18.01l-2.32-1.35q-.41-.24-.6-.68c-.2-.49-.4-.88-.81-1.22q-.95-.78-.97-1.99 0-.48-.2-.92-1.38-3.07-3.42-5.67-1.1-1.42-1.44-2.98-.24-1.08-.57-2.15-.32-1.03-.44-2.11-.75-6.81-2.86-14.08-.62-2.12-1.48-3.8-.98-1.89-1.46-3.46-1.84-6.03-3.92-11.74-.51-1.39-1.29-2.53c-.74-1.09-.97-2.25-1.63-3.31q-.65-1.07-1.24-2.18-.51-.98-.65-2.19-.31-2.63-1.35-5.32-.78-2.03-1.35-4.16-.52-1.96-1.59-4.11-1.98-4.01-2.97-8.38-.11-.48-.41-.87-.73-.93-.54-2.06.08-.47-.11-.9l-1.84-4.42q-.13-.31-.01-.63.07-.19-.06-.37-.13-.17-.19-.38-.46-1.65-1-3.23-.55-1.6-.92-3.23-1.13-4.99-2.69-9.73a.46.44 87.3 0 0-.31-.29q-.23-.08-.29-.31-2.45-9.92-6.1-19.23a2.04 2.03-52.1 0 1-.12-.97c.14-1.06-.52-1.79-.84-2.8q-1.19-3.82-2.34-7.07-.97-2.73-1.86-5.76-.04-.15 0-.31.1-.35-.32-.45a.52.51 85.4 0 1-.36-.31q-1.43-3.45-2.35-7.11-.42-1.64-1.26-3.11-.84-1.47-1.21-3-.83-3.49-2.15-6.67-.3-.74-.58-1.54-1.57-4.51-2.78-8.54-.14-.47-.46-.84-.37-.44-.3-1.09.06-.55-.19-1.04-1.84-3.63-2.78-7.28-.64-2.47-1.7-4.77-1.11-2.42-1.53-4.75-.11-.57-.27-1.12-1.38-4.8-3.14-9.16-1.71-4.21-2.64-7.89-1.03-4.11-2.22-8.02-.1-.33-.42-.48-.13-.07-.21-.21-.03-.05-.04-.11-.15-1.23-.72-2.87-.15-.43-.61-.46-.14-.01-.22-.14-.1-.17-.14-.38l-.58-3.43q-.27-1.6-.89-3.1-.95-2.33-1.87-4.76-.52-1.4-.78-3.01c-.22-1.36-.97-2.67-1.14-4.11q-.22-1.86-1.09-3.56-.58-1.14-.87-2.37-.27-1.12-.93-2.17-.29-.47-.28-1.03.04-2.61-1.24-4.77a2.09 2.06 28.7 0 1-.27-.9c-.06-1.36-.82-2.07-1.23-3.28q-1.32-3.82-2.1-7.46a.05.04-21.2 0 0-.07-.03q-.34.22-.62-.04-.08-.07-.11-.19-.28-1.41-1.05-2.72-.64-1.1-.86-2.33-.31-1.7-.9-3.26-1.6-4.23-2.34-8.49-.05-.31-.36-.4-.24-.06-.28-.31-.68-4.35-2.29-8.36-2.11-5.3-3.77-10.15-.19-.56-.67-.91-.45-.33-.3-.89a.94.93 31.2 0 0-.21-.85q-.73-.82-.55-1.97.09-.64-.26-1.17-.28-.41-.33-.91-.05-.54-.55-.77-.42-.2-.39-.68.04-.49-.21-.91-.75-1.25-1.1-2.62-.37-1.48-.95-2.64-1.49-2.99-2.02-6.07-.47-2.7-1.5-5.03-1.04-2.37-1.86-5.14-1.27-4.31-2.74-8.38c-.5-1.37-1.62-2.02-1.34-3.63a.84.83 21.2 0 0-.38-.84q-.25-.16-.39-.44a1.99 1.97-57.6 0 1-.2-.91q0-.92-.52-1.67-.29-.42-.23-.93.18-1.3-.64-2.27-.34-.41-.42-.93-.65-4.29-2.34-8.22c-.62-1.43-.94-2.89-1.58-4.29q-.09-.19.06-.37a.35.34-39.2 0 0 .04-.36q-1.54-3.54-3.08-7.07-.31-.71-.33-1.45-.02-.72-.29-1.39a1.62 1.56 10.1 0 0-.48-.66q-.72-.57-.44-1.54.02-.08-.03-.16-.09-.14-.24-.19-.14-.04-.16-.16-.78-4.24-2.19-8.3-.19-.55-.23-1.11-.03-.52-.46-.87-.4-.33-.52-.84-1.07-4.24-2.44-8.73-.3-1-.82-1.9-.54-.96-.8-2.26-.68-3.36-2.65-7.33-.15-.3-.02-.64a.69.67-52.5 0 0-.07-.63q-.93-1.35-1.07-2.84-.09-.96-.4-1.93-.23-.68-.31-1.42-.07-.71-.41-1.37-1.08-2.1-1.82-4.47-.17-.54-.09-1.1.09-.7-.41-1.11-.38-.31-.38-.8v-1.16q0-.48-.21-.91-1.11-2.38-2-4.95-1.19-3.47-2.48-6.77-.28-.7-.44-1.47c-.23-1.11-1.01-1.58-1.38-2.66q-1.16-3.4-3.17-6.38-.27-.41-.29-.91-.03-1.31-.72-2.09-.88-1-1.18-2.04-.53-1.91-.66-2.15-1.11-2.14-2.29-4.25-.26-.45-.25-.97.06-2.66-1.02-4.8c-.28-.57-.12-1.15-.35-1.81q-2.31-6.57-4.47-13.19-.05-.13-.94-3.47-.59-2.2-1.71-4.2-.46-.81-.59-1.7c-.1-.73-.25-1.6-.68-2.21q-.59-.84-.66-1.86-.04-.51-.32-.94-.72-1.13-.69-2.38a.6.59-80.1 0 0-.4-.58q-.2-.07-.33-.22-.12-.14-.15-.33-.46-3.87-2.49-7.95-1.06-2.13-1.92-5.44-.08-.33-.38-.49-.12-.06-.21-.17-.04-.05-.05-.11-1.83-8.79-4.84-16.04-1.23-2.98-1.72-5.74-.07-.43-.33-.78-.6-.84-.46-1.85a1.37 1.37 0 0 0-.21-.96q-1.17-1.77-1.5-3.71-.6-3.68-1.95-6.92-.82-1.97-1.47-3.87-1.21-3.53-2.47-7.14-.21-.61-.23-1.26-.03-.56-.44-.97-.42-.43-.46-1.03-.06-.94-.52-1.75-.64-1.11-.7-2.46-.02-.53-.3-.98-1.07-1.79-1.19-3.88a2.39 2.36 29 0 0-.31-1.05q-1.11-1.97-1.34-4.21-.1-1.02-.73-1.99-.5-.78-.76-1.74-.71-2.6-1.67-5.11a1.97 1.88 39 0 1-.12-.94q.09-.81-.45-1.44-.31-.36-.41-.82-.7-3.26-1.34-6.44c-.18-.9-.67-1.34-1.37-1.83q-.39-.28-.47-.74l-.52-2.98q-.08-.49.03-.97.16-.68-.24-1.34a3.89 3.37-58.9 0 1-.43-2.49q.04-.24.28-.14.54.21.22-.27-.1-.14-.08-.31.06-.56-.44-.32l-.1.04q-.18.06-.25-.12-.06-.13-.04-.26.12-.69-.54-.49-.15.05-.32 0-.35-.09-.34-.45.01-.82-.73-1.39-.67-.52-1.05-1.28-.49-1-.64-1.99-.17-1.04-.55-2.07-1.29-3.43-3.09-6.67-.37-.67-.47-1.4a1.74 1.72 20.8 0 0-.41-.9q-1.44-1.63-1.62-3.56-.04-.44-.26-.83-1.27-2.23-1.88-4.82-.58-2.49-1.49-4.94-.95-2.55-1.55-4.88-.28-1.11.01-3.43.22-1.81 1.91-1.72Z"/><path fill="#fff" d="m724.05 999.07-3.92 13.57-6.82 23.08-1.86 6.67-1.25 4.1q-.37.65-.32 1.18l-1.37 4.87q-.49.72-.54 1.64l-1.76 5.9-2.51 8.34-1.5 5.08-9.01 29.66q-.6 1.19-.73 2.48-.37.63-.14.75-.87 1.53-1.18 3.39-.85 1.9-.74 3.29-2.63 7.05-4.96 14.01-3.09 9.2-5.16 13.92-22.38 51.15-70.65 81.64c-23.92 15.1-52 24.12-80.44 26.57q-16.42 1.41-29.47-.11-5.55-.65-11.32-1.27-5.53-.6-11.01-2.01-10.14-2.61-19.99-5.14-7.78-1.99-16.66-5.94-26.85-11.94-48.71-31.58-4.31-3.87-11.27-11.02l-2.56-2.78q2.16-6.05 3.88-11.77.79-2.62 1.09-4.79c.57-4.02 2.09-7.24 4.36-10.4a1.23 1.22-33 0 0 .21-.97l-.43-2.18q-.11-.52.09-1.01l3.12-7.76q.16-.39-.05-.75l-.67-1.16q-.28-.48-.02-.98l1.9-3.71q.24-.47.17-1c-.27-1.91.87-3.12 1.33-4.85q.69-2.52 1.22-5.04.49-2.36 1.45-4.77l3.39-8.59c1.4-3.55 1.77-7.13 3.52-10.58a2.26 2.2 53.7 0 0 .2-1.42q-.42-2.18.55-4.28 2.12-4.56 2.75-9.3.42-3.11 1.6-6.14 1.89-4.83 2.85-9.52.75-3.64 2.21-7.29 1.92-4.76 2.49-9.59.86-7.27 1.32-9.04 2.54-9.76 5.54-17.91 1.34-3.66 2-7.25c.61-3.36 2.22-6.21 3.03-9.57q1.11-4.54 2-8.89c.56-2.73 2.1-4.8 2.36-7.65.37-4.15 2.63-7.07 3.62-10.95q2.4-9.41 5.63-19.3c.51-1.57.24-3.11 1.21-4.59 2.69-4.12 2.33-9.06 4.2-13.54q3.65-8.73 5.68-17.82c.5-2.2 1.62-4.25 2.2-6.53q5.65-22.06 11.82-40.55 2.8-8.39 4.85-18.19 1.29-6.21 4.7-13.65c1.54-3.37 2.19-7.04 3.4-10.54q.34-.99.5-2.1.19-1.31.51-2.52 4.8-18.09 12.1-39.84.8-2.37 1.26-4.91c.41-2.26 1.57-4.17 2.18-6.39q3.33-12.12 6.91-23.95.34-1.09.77-2.23 1.29-3.32 1.82-7.47.42-3.21 2.1-7.41 3.15-7.87 5.75-18.25.86-3.46 1.28-5.87.39-2.29 1.49-4.11c2.14-3.54 2.26-7.83 3.58-11.65q1.48-4.26 2.44-9.11.65-3.29 1.51-5.98c1.08-3.37 1.79-6.81 3.24-10.08.84-1.9 1.88-3.58 2.34-5.63q.88-3.85 2.31-7.52c1.05-2.65.58-5.83 1.86-8.25.79-1.5.58-3.05 1.46-4.38q.73-1.09 1.13-2.29 3.67-10.87 5.72-20.65.63-3 2.06-5.87 1.61-3.23 2.25-7.09c.76-4.6 2.7-9.08 4.06-13.65.52-1.74.29-3.57 1.01-5.22 1.13-2.61 2.53-6.02 1.92-8.91-.82-3.81 2.43-4.89 2.39-8.33a2.9 2.87 60.3 0 1 .41-1.52q1.17-1.96 1.16-4.29-.01-.53.29-.98 1.66-2.5 1.66-5.34 0-.58.38-1.03 1.59-1.87 1.52-4.36-.13-4.71 2.77-7.96.38-.44-.01-.87-1.4-1.52-.03-2.86.45-.44.66-1.04c1.4-4.07 3.52-7.75 4.48-12.04q.82-3.71 1.94-7.6c.75-2.61 2-4.87 3.12-7.34q.98-2.16 1.7.1 41.8 130.86 84.24 265.45 3.03 9.61 6.09 19.06 29.96 92.68 58.75 185.81Z"/><path fill="#4c4c4c" fill-opacity=".298" d="m720.13 1012.64-.38 5.42q-.04.5-.48.74-.5.27-.58.87-.14 1.18-.18 2.41a.9.88-20.2 0 1-.31.65q-.47.38-.34.96c.22.91-.21 1.95-.77 2.67a1.1 1.09-30.2 0 0-.21.78q.12 1-.64 1.77-.35.34-.35.84v1.29q0 .52-.44.82-.92.62-.78 2.13.13 1.41-1.36 1.73l6.82-23.08ZM711.45 1042.39q.41 2-.5 3.89-.14.27-.75.21l1.25-4.1ZM709.88 1047.67q.24 2.6-1.37 4.87l1.37-4.87ZM707.97 1054.18q.2 3.24-1.76 5.9l1.76-5.9ZM703.7 1068.42q.35.88.13 1.83-.63 2.72-1.63 3.25l1.5-5.08ZM693.19 1103.16q.21 1.39-.19 2.6-.1.28-.54-.12.13-1.29.73-2.48ZM692.32 1106.39q-.93 9.02-1.18 3.39.31-1.86 1.18-3.39ZM690.4 1113.07q-2.47 12.05-7.13 23.36-.15.38-.11.79.05.44-.28.68-.43.32-.62.8-.13.33-.09.68.06.53-.37.86-.61.47-.63 1.25-.01.5-.26.94-1.07 1.77-1.67 3.87-.13.43-.45.74-.36.33-.46.82-.05.21-.14.41l-2.05 4.6q-.21.45-.6.76-1.18.93-1.33 2.46-.05.46-.3.86l-2.04 3.31q-.26.42-.24.91.04.8-.7 1.11-.44.19-.58.65-.41 1.37-1.27 2.54-1.21 1.64-1.8 3.68-.55 1.87-1.74 3.41-1.35 1.74-2.25 3.64-.4.85-1.21 1.5-.38.3-.64.7l-3.97 5.91q-.25.38-.65.61-.6.37-1.41 1.5-3.93 5.53-8.16 9.86-.37.38-.62.85-.22.42-.55.76-8.03 8.03-17.32 16.54-.27.24-.58.33l-.36.08q-.34.06-.59.3-4.19 4.06-8.87 6.87-3.21 1.93-6.01 3.86-1.88 1.3-4.02 2.5-2.06 1.15-4.04 2.48-3.51 2.36-7.69 4.34-.51.24-.85.7-.58.77-1.58.82a2.48 2.37 28.8 0 0-.94.25c-4.28 2.07-8.41 4.1-13 5.66q-3.01 1.02-5.88 2.14c-2.91 1.14-6.04 1.82-9.04 2.95q-.36.14-.64.42-.37.37-.89.31-.52-.07-1.02.11-3.82 1.31-7.48 2.1-4.82 1.03-9.46 2.3-2.41.65-5.3.78-2.51.11-5.5.54-12.6 1.84-26.17 1.09-10.12-.56-23.36-2.37c-4.84-.66-9.53-2.11-14.25-3.06q-.3-.07-.55-.25-.4-.29-.89-.4-8.73-1.98-17.02-4.71-2-.65-4.83-2.04-2.43-1.18-4.83-2.11-4.13-1.59-6.08-2.58-2.74-1.39-5.84-3.13-.74-.42-1.68-.54-1.17-.14-1.83-.98-.49-.62-1.2-1.02-1.04-.58-2.03-.93a1.92 1.82 75.9 0 1-.69-.44q-1.57-1.58-3.81-1.92-.52-.08-.95-.4-1.86-1.39-3.95-2.58-1.99-1.13-3.89-2.64-3.84-3.07-7.92-6.1-4.33-3.23-7.71-6.34-5.21-4.79-10.73-9.88-1.3-1.2-2.02-3.25-.41-1.16-1.15-2.71-.62-1.3-.88-2.84 6.96 7.15 11.27 11.02 21.86 19.64 48.71 31.58 8.88 3.95 16.66 5.94 9.85 2.53 19.99 5.14 5.48 1.41 11.01 2.01 5.77.62 11.32 1.27 13.05 1.52 29.47.11c28.44-2.45 56.52-11.47 80.44-26.57q48.27-30.49 70.65-81.64 2.07-4.72 5.16-13.92 2.33-6.96 4.96-14.01Z"/></svg>